<svg width="265" height="70" viewBox="0 0 265 70" fill="none" xmlns="http://www.w3.org/2000/svg">
<path d="M27.7891 0.799995C28.5571 0.799995 29.1011 1.184 29.4211 1.952L51.1171 67.04C51.3091 67.68 51.1171 68 50.5411 68H47.7571C47.1811 68 46.7971 67.744 46.6051 67.232L40.9411 50.336H11.0851L5.51713 67.232C5.32513 67.744 4.94113 68 4.36513 68H1.58113C1.00513 68 0.813125 67.68 1.00513 67.04L22.7011 1.952C22.9571 1.184 23.5011 0.799995 24.3331 0.799995H27.7891ZM12.4291 46.304H39.5971L26.0611 5.31199L12.4291 46.304ZM101.297 65.12C101.873 65.12 102.161 65.44 102.161 66.08V67.712C102.161 68.352 101.873 68.672 101.297 68.672C97.8406 68.864 93.8726 68.992 89.3926 69.056C84.9766 69.12 80.4326 69.152 75.7606 69.152C71.3446 69.152 68.2406 68.288 66.4486 66.56C64.7206 64.768 63.8566 61.952 63.8566 58.112V1.75999C63.8566 1.12 64.1766 0.799995 64.8166 0.799995H67.3126C67.9526 0.799995 68.2726 1.12 68.2726 1.75999V58.688C68.2726 60.736 68.7846 62.336 69.8086 63.488C70.8966 64.576 72.5606 65.12 74.8006 65.12H101.297ZM118.264 67.04C118.264 67.68 117.944 68 117.304 68H114.808C114.168 68 113.848 67.68 113.848 67.04V1.75999C113.848 1.12 114.168 0.799995 114.808 0.799995H117.304C117.944 0.799995 118.264 1.12 118.264 1.75999V67.04ZM155.302 68C154.47 68 153.926 67.616 153.67 66.848L131.974 1.75999C131.782 1.12 131.974 0.799995 132.55 0.799995H135.334C135.91 0.799995 136.294 1.056 136.486 1.568L157.03 63.488L177.574 1.568C177.766 1.056 178.15 0.799995 178.726 0.799995H181.51C182.086 0.799995 182.278 1.12 182.086 1.75999L160.39 66.848C160.07 67.616 159.526 68 158.758 68H155.302ZM200.201 67.04C200.201 67.68 199.881 68 199.241 68H196.745C196.105 68 195.785 67.68 195.785 67.04V1.75999C195.785 1.12 196.105 0.799995 196.745 0.799995H199.241C199.881 0.799995 200.201 1.12 200.201 1.75999V67.04ZM240.695 0.799995C241.463 0.799995 242.007 1.184 242.327 1.952L264.023 67.04C264.215 67.68 264.023 68 263.447 68H260.663C260.087 68 259.703 67.744 259.511 67.232L253.847 50.336H223.991L218.423 67.232C218.231 67.744 217.847 68 217.271 68H214.487C213.911 68 213.719 67.68 213.911 67.04L235.607 1.952C235.863 1.184 236.407 0.799995 237.239 0.799995H240.695ZM225.335 46.304H252.503L238.967 5.31199L225.335 46.304Z" fill="white"/>
</svg>
