<svg width="79" height="12" viewBox="0 0 79 12" fill="none" xmlns="http://www.w3.org/2000/svg">
<path d="M1.50977 5.24047C1.12373 5.24047 0.810786 5.55342 0.810786 5.93945C0.810786 6.32549 1.12373 6.63843 1.50977 6.63843L1.50977 5.24047ZM78.004 6.43371C78.277 6.16074 78.277 5.71818 78.004 5.44521L73.5557 0.996927C73.2828 0.723959 72.8402 0.723959 72.5672 0.996927C72.2943 1.2699 72.2943 1.71246 72.5672 1.98543L76.5213 5.93946L72.5672 9.89349C72.2943 10.1665 72.2943 10.609 72.5672 10.882C72.8402 11.155 73.2828 11.155 73.5557 10.882L78.004 6.43371ZM1.50977 6.63843L77.5098 6.63844L77.5098 5.24048L1.50977 5.24047L1.50977 6.63843Z" fill="#B7893A"/>
</svg>
