<svg width="374" height="452" viewBox="0 0 374 452" fill="none" xmlns="http://www.w3.org/2000/svg">
<path d="M12.3378 39.2549H0.119141V451.331H12.3378V39.2549Z" fill="black" fill-opacity="0.06"/>
<path d="M47.3827 176.434V39.2549H35.1641V451.331H47.3827V269.158C42.5761 254.579 39.9259 239.013 39.9259 222.774C39.9259 206.535 42.5761 191.058 47.3827 176.434Z" fill="black" fill-opacity="0.06"/>
<path d="M82.369 39.2549H70.1504V133.1C73.9238 128.121 78.0116 123.411 82.369 118.97V39.2549Z" fill="black" fill-opacity="0.06"/>
<path d="M70.1504 451.315H82.369V326.606C78.0116 322.165 73.9238 317.455 70.1504 312.476V451.315Z" fill="black" fill-opacity="0.06"/>
<path d="M117.414 39.2549H105.195V99.9493C109.148 97.2578 113.191 94.7905 117.414 92.5027V39.2549Z" fill="black" fill-opacity="0.06"/>
<path d="M105.195 451.319H117.414V353.122C113.236 350.835 109.148 348.367 105.195 345.676V451.319Z" fill="black" fill-opacity="0.06"/>
<path d="M152.402 39.2549H140.184V82.4991C144.182 81.1085 148.269 79.8972 152.402 78.8655V39.2549Z" fill="black" fill-opacity="0.06"/>
<path d="M140.184 451.338H152.402V366.778C148.269 365.746 144.182 364.535 140.184 363.145V451.338Z" fill="black" fill-opacity="0.06"/>
<path d="M198.586 0H186.367V406.379H198.586V0Z" fill="black" fill-opacity="0.06"/>
<path d="M233.574 0H221.355V406.379H233.574V0Z" fill="black" fill-opacity="0.06"/>
<path d="M268.619 0H256.4V406.379H268.619V0Z" fill="black" fill-opacity="0.06"/>
<path d="M303.605 0H291.387V406.379H303.605V0Z" fill="black" fill-opacity="0.06"/>
<path d="M338.65 0H326.432V406.379H338.65V0Z" fill="black" fill-opacity="0.06"/>
<path d="M373.638 0H361.419V406.379H373.638V0Z" fill="black" fill-opacity="0.06"/>
</svg>
