<svg width="374" height="452" viewBox="0 0 374 452" fill="none" xmlns="http://www.w3.org/2000/svg">
<path d="M12.2186 39.2549H0V451.331H12.2186V39.2549Z" fill="black" fill-opacity="0.06"/>
<path d="M47.2636 176.434V39.2549H35.0449V451.331H47.2636V269.158C42.457 254.579 39.8067 239.013 39.8067 222.774C39.8067 206.535 42.457 191.058 47.2636 176.434Z" fill="black" fill-opacity="0.06"/>
<path d="M82.2499 39.2549H70.0312V133.1C73.8047 128.121 77.8925 123.411 82.2499 118.97V39.2549Z" fill="black" fill-opacity="0.06"/>
<path d="M70.0312 451.315H82.2499V326.606C77.8925 322.165 73.8047 317.455 70.0312 312.476V451.315Z" fill="black" fill-opacity="0.06"/>
<path d="M117.295 39.2549H105.076V99.9493C109.029 97.2578 113.072 94.7905 117.295 92.5027V39.2549Z" fill="black" fill-opacity="0.06"/>
<path d="M105.076 451.319H117.295V353.122C113.117 350.835 109.029 348.367 105.076 345.676V451.319Z" fill="black" fill-opacity="0.06"/>
<path d="M152.283 39.2549H140.064V82.4991C144.062 81.1085 148.15 79.8972 152.283 78.8655V39.2549Z" fill="black" fill-opacity="0.06"/>
<path d="M140.064 451.338H152.283V366.778C148.15 365.746 144.062 364.535 140.064 363.145V451.338Z" fill="black" fill-opacity="0.06"/>
<path d="M198.467 0H186.248V406.379H198.467V0Z" fill="black" fill-opacity="0.06"/>
<path d="M233.455 0H221.236V406.379H233.455V0Z" fill="black" fill-opacity="0.06"/>
<path d="M268.5 0H256.281V406.379H268.5V0Z" fill="black" fill-opacity="0.06"/>
<path d="M303.486 0H291.268V406.379H303.486V0Z" fill="black" fill-opacity="0.06"/>
<path d="M338.531 0H326.312V406.379H338.531V0Z" fill="black" fill-opacity="0.06"/>
<path d="M373.519 0H361.301V406.379H373.519V0Z" fill="black" fill-opacity="0.06"/>
</svg>
