<svg width="1542" height="374" viewBox="0 0 1542 374" fill="none" xmlns="http://www.w3.org/2000/svg">
<path d="M55.4938 270.911L25.0585 363.26C24.0154 366.083 21.929 367.433 18.7382 367.433H3.52059C0.391151 367.433 -0.651961 365.715 0.391185 362.156L119.003 6.32023C120.414 2.14764 123.36 0 127.9 0H146.8C150.972 0 153.979 2.08628 155.697 6.32023L274.309 362.156C275.352 365.653 274.309 367.433 271.179 367.433H255.962C252.832 367.433 250.685 366.021 249.642 363.26L218.654 270.911L211.291 248.882L137.289 24.79L62.7958 248.882L55.4938 270.911Z" fill="black" fill-opacity="0.06"/>
<path d="M538.653 351.738C541.783 351.738 543.378 353.517 543.378 357.015V365.912C543.378 369.41 541.783 371.189 538.653 371.189C519.754 372.233 498.155 372.908 473.856 373.276C449.557 373.644 459.742 373.828 434.216 373.828C410.101 373.828 393.165 369.042 383.593 359.408C373.959 349.774 369.173 334.495 369.173 313.509V5.47485C369.173 1.97724 370.891 0.197754 374.45 0.197754H388.072C391.57 0.197754 393.349 1.97724 393.349 5.47485V316.7C393.349 327.93 396.233 336.581 402.001 342.656C407.769 348.792 416.789 351.86 429 351.86H538.653V351.738Z" fill="black" fill-opacity="0.06"/>
<path d="M669.595 362.235C669.595 365.733 667.816 367.512 664.318 367.512H650.696C647.198 367.512 645.419 365.794 645.419 362.235V5.35668C645.419 1.85908 647.137 0.0795898 650.696 0.0795898H664.318C667.816 0.0795898 669.595 1.85908 669.595 5.35668V362.235Z" fill="black" fill-opacity="0.06"/>
<path d="M897.234 367.451C892.694 367.451 889.687 365.365 888.337 361.131L769.725 5.35668C768.682 1.85908 769.725 0.0795898 772.855 0.0795898H788.072C791.202 0.0795898 793.349 1.49086 794.393 4.25213L906.684 342.722L1018.98 4.25213C1020.02 1.4295 1022.1 0.0795898 1025.3 0.0795898H1040.51C1043.64 0.0795898 1044.69 1.85908 1043.64 5.35668L925.031 361.131C923.252 365.303 920.306 367.451 916.134 367.451H897.234Z" fill="black" fill-opacity="0.06"/>
<path d="M1167.91 362.235C1167.91 365.733 1166.14 367.512 1162.64 367.512H1149.02C1145.52 367.512 1143.74 365.794 1143.74 362.235V5.35668C1143.74 1.85908 1145.46 0.0795898 1149.02 0.0795898H1162.64C1166.14 0.0795898 1167.91 1.85908 1167.91 5.35668V362.235Z" fill="black" fill-opacity="0.06"/>
<path d="M1322.79 270.911L1292.36 363.26C1291.32 366.083 1289.23 367.433 1286.04 367.433H1270.82C1267.69 367.433 1266.65 365.715 1267.69 362.156L1386.3 6.32023C1387.71 2.14764 1390.66 0 1395.2 0H1414.1C1418.27 0 1421.28 2.08628 1423 6.32023L1541.61 362.156C1542.65 365.653 1541.61 367.433 1538.48 367.433H1523.26C1520.13 367.433 1517.98 366.021 1516.94 363.26L1485.95 270.911L1478.59 248.882L1404.59 24.79L1330.1 248.882L1322.79 270.911Z" fill="black" fill-opacity="0.06"/>
</svg>
