<svg width="52" height="63" viewBox="0 0 52 63" fill="none" xmlns="http://www.w3.org/2000/svg">
<path d="M1.67615 5.39062H0V61.9976H1.67615V5.39062Z" fill="#424242"/>
<path d="M6.48474 24.235V5.39062H4.80859V61.9976H6.48474V36.9725C5.82538 34.9697 5.46182 32.8314 5.46182 30.6006C5.46182 28.3699 5.82538 26.2439 6.48474 24.235Z" fill="#424242"/>
<path d="M11.2816 5.39062H9.60547V18.2822C10.1231 17.5982 10.6839 16.9511 11.2816 16.3411V5.39062Z" fill="#424242"/>
<path d="M9.60547 61.9981H11.2816V44.8669C10.6839 44.2568 10.1231 43.6098 9.60547 42.9258V61.9981Z" fill="#424242"/>
<path d="M16.0902 5.39062H14.4141V13.7282C14.9563 13.3585 15.511 13.0196 16.0902 12.7053V5.39062Z" fill="#424242"/>
<path d="M14.4141 62.0005H16.0902V48.5112C15.5171 48.1969 14.9563 47.858 14.4141 47.4883V62.0005Z" fill="#424242"/>
<path d="M20.891 5.39062H19.2148V11.3311C19.7633 11.1401 20.3241 10.9737 20.891 10.8319V5.39062Z" fill="#424242"/>
<path d="M19.2148 62.0018H20.891V50.3859C20.3241 50.2441 19.7633 50.0778 19.2148 49.8867V62.0018Z" fill="#424242"/>
<path d="M27.2269 0H25.5508V55.8244H27.2269V0Z" fill="#424242"/>
<path d="M32.0199 0H30.3438V55.8244H32.0199V0Z" fill="#424242"/>
<path d="M36.8324 0H35.1562V55.8244H36.8324V0Z" fill="#424242"/>
<path d="M41.6332 0H39.957V55.8244H41.6332V0Z" fill="#424242"/>
<path d="M46.4418 0H44.7656V55.8244H46.4418V0Z" fill="#424242"/>
<path d="M51.2386 0H49.5625V55.8244H51.2386V0Z" fill="#424242"/>
</svg>
