<svg width="317" height="220" viewBox="0 0 317 220" fill="none" xmlns="http://www.w3.org/2000/svg">
<path d="M5.21973 15.3125H13.9697C17.5531 15.3125 20.3031 16.2292 22.2197 18.0625C24.1572 19.8958 25.126 22.6042 25.126 26.1875C25.126 32.375 22.8656 35.9167 18.3447 36.8125V37.0625C20.9489 37.6042 22.8864 38.7708 24.1572 40.5625C25.4281 42.3333 26.0635 44.8125 26.0635 48C26.0635 52.0833 25.1572 55.2708 23.3447 57.5625C21.5322 59.8542 18.9906 61 15.7197 61H5.21973V15.3125ZM8.28223 35.6562H14.0322C16.8864 35.6562 18.9176 34.875 20.126 33.3125C21.3551 31.7292 21.9697 29.3333 21.9697 26.125C21.9697 23.5417 21.2926 21.5625 19.9385 20.1875C18.6051 18.8125 16.6156 18.125 13.9697 18.125H8.28223V35.6562ZM8.28223 38.4688V58.1875H15.3135C20.3551 58.1875 22.876 54.7708 22.876 47.9375C22.876 44.8958 22.1364 42.5625 20.6572 40.9375C19.1781 39.2917 17.1051 38.4688 14.4385 38.4688H8.28223ZM58.876 61H55.9072V27.0938H58.876V61ZM36.0947 41.9375H40.501C43.7926 41.9375 46.3135 42.7708 48.0635 44.4375C49.8135 46.0833 50.6885 48.4271 50.6885 51.4688C50.6885 54.4896 49.7926 56.8333 48.001 58.5C46.2093 60.1667 43.6885 61 40.4385 61H33.126V27.0938H36.0947V41.9375ZM36.0947 44.625V58.3125H40.4385C45.2093 58.3125 47.5947 56.0312 47.5947 51.4688C47.5947 46.9062 45.2301 44.625 40.501 44.625H36.0947ZM69.8135 39.4375C69.8968 46.1042 70.4801 51.0208 71.5635 54.1875C72.6676 57.3542 74.3656 58.9375 76.6572 58.9375C81.8239 58.9375 84.4072 54.4792 84.4072 45.5625C84.4072 36.7917 81.9281 32.4062 76.9697 32.4062C75.4489 32.4062 74.0218 33.0729 72.6885 34.4062C71.3551 35.7396 70.3968 37.4167 69.8135 39.4375ZM66.7197 38.7812C66.7197 32.4062 67.2822 27.4062 68.4072 23.7812C69.5531 20.1354 71.4697 17.4271 74.1572 15.6562C76.8656 13.8646 81.0426 12.6979 86.6885 12.1562L87.1572 14.8438C82.5322 15.1979 79.0635 16.0104 76.751 17.2812C74.4385 18.5521 72.7406 20.5104 71.6572 23.1562C70.5947 25.8021 69.9801 29.6458 69.8135 34.6875H70.0635C70.8343 33.0625 71.876 31.8021 73.1885 30.9062C74.5218 30.0104 75.9593 29.5625 77.501 29.5625C80.626 29.5625 83.0635 30.9479 84.8135 33.7188C86.5843 36.4688 87.4697 40.4167 87.4697 45.5625C87.4697 50.7083 86.5426 54.6771 84.6885 57.4688C82.8343 60.2396 80.1364 61.625 76.5947 61.625C73.1781 61.625 70.6781 59.7604 69.0947 56.0312C67.5114 52.2812 66.7197 46.5312 66.7197 38.7812ZM104.563 61.625C100.98 61.625 98.2197 60.1042 96.2822 57.0625C94.3656 54 93.4072 49.7396 93.4072 44.2812C93.4072 38.4896 94.2614 34.0729 95.9697 31.0312C97.6989 27.9688 100.178 26.4375 103.407 26.4375C106.22 26.4375 108.438 27.7812 110.063 30.4688C111.688 33.1354 112.501 36.7396 112.501 41.2812V44.0312H96.4385C96.4801 48.9688 97.1781 52.6667 98.5322 55.125C99.8864 57.5833 101.938 58.8125 104.688 58.8125C106.813 58.8125 109.053 58.1146 111.407 56.7188V59.5938C109.241 60.9479 106.959 61.625 104.563 61.625ZM103.22 29.125C99.1364 29.125 96.8968 33.1979 96.501 41.3438H109.532C109.532 37.6146 108.959 34.6458 107.813 32.4375C106.688 30.2292 105.157 29.125 103.22 29.125ZM130.97 61.625C129.261 61.625 127.699 61.1562 126.282 60.2188C124.886 59.2604 123.824 57.9583 123.095 56.3125H122.813L123.032 60.0312V76.375H120.063V27.0938H122.501L122.813 31.75H123.095C123.928 30.0417 124.991 28.7292 126.282 27.8125C127.595 26.8958 129.022 26.4375 130.563 26.4375C137.188 26.4375 140.501 32.2812 140.501 43.9688C140.501 49.6146 139.688 53.9688 138.063 57.0312C136.438 60.0938 134.074 61.625 130.97 61.625ZM130.376 29.25C127.897 29.25 126.053 30.3438 124.845 32.5312C123.636 34.7188 123.032 38.1458 123.032 42.8125V43.7812C123.032 48.9896 123.647 52.8229 124.876 55.2812C126.105 57.7188 127.98 58.9375 130.501 58.9375C132.834 58.9375 134.563 57.7292 135.688 55.3125C136.834 52.875 137.407 49.0938 137.407 43.9688C137.407 39.0729 136.876 35.3958 135.813 32.9375C134.751 30.4792 132.938 29.25 130.376 29.25ZM150.97 27.0938V50L150.751 56.4062L162.782 27.0938H166.501V61H163.563V39.0625L163.688 31.6875L151.657 61H148.001V27.0938H150.97ZM186.595 27.0938V29.7812H180.563V61H177.626V29.7812H171.595V27.0938H186.595ZM201.251 61.625C197.668 61.625 194.907 60.1042 192.97 57.0625C191.053 54 190.095 49.7396 190.095 44.2812C190.095 38.4896 190.949 34.0729 192.657 31.0312C194.386 27.9688 196.866 26.4375 200.095 26.4375C202.907 26.4375 205.126 27.7812 206.751 30.4688C208.376 33.1354 209.188 36.7396 209.188 41.2812V44.0312H193.126C193.168 48.9688 193.866 52.6667 195.22 55.125C196.574 57.5833 198.626 58.8125 201.376 58.8125C203.501 58.8125 205.741 58.1146 208.095 56.7188V59.5938C205.928 60.9479 203.647 61.625 201.251 61.625ZM199.907 29.125C195.824 29.125 193.584 33.1979 193.188 41.3438H206.22C206.22 37.6146 205.647 34.6458 204.501 32.4375C203.376 30.2292 201.845 29.125 199.907 29.125ZM231.313 61.625C230.355 61.625 229.376 61.5104 228.376 61.2812C227.376 61.0729 226.543 60.7917 225.876 60.4375V57.5938C227.647 58.4062 229.397 58.8125 231.126 58.8125C233.855 58.8125 235.907 57.6875 237.282 55.4375C238.657 53.1667 239.397 49.5625 239.501 44.625H230.313V41.9375H239.438C239.084 33.4792 236.459 29.25 231.563 29.25C230.897 29.25 230.157 29.375 229.345 29.625C228.532 29.8542 227.928 30.0938 227.532 30.3438L226.407 27.6562C228.095 26.8438 229.928 26.4375 231.907 26.4375C235.386 26.4375 238.032 27.9062 239.845 30.8438C241.678 33.7812 242.595 38.1146 242.595 43.8438C242.595 49.6771 241.647 54.1042 239.751 57.125C237.876 60.125 235.063 61.625 231.313 61.625ZM261.095 27.0938V29.7812H255.063V61H252.126V29.7812H246.095V27.0938H261.095ZM279.251 61L278.876 56.25H278.751C277.126 59.8333 274.668 61.625 271.376 61.625C269.168 61.625 267.386 60.75 266.032 59C264.699 57.2292 264.032 54.8646 264.032 51.9062C264.032 48.6771 265.001 46.125 266.938 44.25C268.876 42.3542 271.595 41.3229 275.095 41.1562L278.751 40.9688V38.1562C278.751 34.9896 278.355 32.6875 277.563 31.25C276.772 29.7917 275.459 29.0625 273.626 29.0625C271.688 29.0625 269.709 29.6979 267.688 30.9688L266.407 28.625C268.761 27.1667 271.23 26.4375 273.813 26.4375C276.605 26.4375 278.616 27.3229 279.845 29.0938C281.074 30.8438 281.688 33.7812 281.688 37.9062V61H279.251ZM272.032 59.0938C274.157 59.0938 275.803 58.0521 276.97 55.9688C278.157 53.8646 278.751 50.8958 278.751 47.0625V43.5312L275.22 43.7188C272.491 43.8646 270.459 44.625 269.126 46C267.813 47.3542 267.157 49.3438 267.157 51.9688C267.157 54.4271 267.595 56.2292 268.47 57.375C269.345 58.5208 270.532 59.0938 272.032 59.0938ZM302.532 27.0938V43.0312L311.563 27.0938H314.907L305.501 43.0312L315.72 61H312.282L302.532 43.2812V61H299.595V43.2812L289.876 61H286.407L296.657 43.0312L287.251 27.0938H290.563L299.595 43.0312V27.0938H302.532Z" fill="white"/>
<path d="M114.775 102.009C114.652 101.525 114.945 101.034 115.428 100.911C115.912 100.789 116.403 101.082 116.526 101.565L114.775 102.009ZM185.914 211.423C186.024 211.91 185.718 212.393 185.231 212.502L177.3 214.284C176.813 214.393 176.33 214.087 176.221 213.601C176.112 213.114 176.417 212.631 176.904 212.521L183.954 210.938L182.37 203.888C182.261 203.402 182.567 202.918 183.054 202.809C183.54 202.7 184.023 203.006 184.133 203.492L185.914 211.423ZM116.526 101.565C123.931 130.783 131.094 151.701 141.435 168.514C151.761 185.302 165.289 198.051 185.516 210.858L184.55 212.384C164.154 199.471 150.401 186.54 139.896 169.46C129.406 152.405 122.19 131.267 114.775 102.009L116.526 101.565Z" fill="white"/>
</svg>
