<svg width="136" height="118" viewBox="0 0 136 118" fill="none" xmlns="http://www.w3.org/2000/svg">
<path d="M46.972 4.73584H45.5V54.4494H46.972V4.73584Z" fill="#424242"/>
<path d="M51.1947 21.2854V4.73584H49.7227V54.4494H51.1947V32.4718C50.6156 30.7129 50.2963 28.835 50.2963 26.8759C50.2963 24.9168 50.6156 23.0497 51.1947 21.2854Z" fill="#424242"/>
<path d="M55.4095 4.73584H53.9375V16.0575C54.3921 15.4568 54.8846 14.8885 55.4095 14.3528V4.73584Z" fill="#424242"/>
<path d="M53.9375 54.4473H55.4095V39.4023C54.8846 38.8665 54.3921 38.2982 53.9375 37.6975V54.4473Z" fill="#424242"/>
<path d="M59.6302 4.73584H58.1582V12.0581C58.6344 11.7334 59.1215 11.4358 59.6302 11.1597V4.73584Z" fill="#424242"/>
<path d="M58.1582 54.4479H59.6302V42.6012C59.1269 42.3252 58.6344 42.0276 58.1582 41.7029V54.4479Z" fill="#424242"/>
<path d="M63.847 4.73584H62.375V9.9529C62.8567 9.78513 63.3491 9.639 63.847 9.51453V4.73584Z" fill="#424242"/>
<path d="M62.375 54.4503H63.847V44.2489C63.3491 44.1244 62.8567 43.9783 62.375 43.8105V54.4503Z" fill="#424242"/>
<path d="M69.4095 0H67.9375V49.0263H69.4095V0Z" fill="#424242"/>
<path d="M73.6244 0H72.1523V49.0263H73.6244V0Z" fill="#424242"/>
<path d="M77.847 0H76.375V49.0263H77.847V0Z" fill="#424242"/>
<path d="M82.0619 0H80.5898V49.0263H82.0619V0Z" fill="#424242"/>
<path d="M86.2845 0H84.8125V49.0263H86.2845V0Z" fill="#424242"/>
<path d="M90.4994 0H89.0273V49.0263H90.4994V0Z" fill="#424242"/>
<path d="M4.89437 93.3004L2.21008 101.445C2.11808 101.694 1.93407 101.813 1.65265 101.813H0.310504C0.0344983 101.813 -0.0575008 101.662 0.0345012 101.348L10.4957 69.9644C10.6201 69.5964 10.8799 69.407 11.2804 69.407H12.9473C13.3153 69.407 13.5804 69.591 13.732 69.9644L24.1932 101.348C24.2852 101.656 24.1931 101.813 23.9171 101.813H22.575C22.299 101.813 22.1096 101.689 22.0176 101.445L19.2846 93.3004L18.6351 91.3576L12.1084 71.5934L5.53839 91.3576L4.89437 93.3004Z" fill="#424242"/>
<path d="M47.5082 100.429C47.7842 100.429 47.9249 100.586 47.9249 100.894V101.679C47.9249 101.988 47.7842 102.145 47.5082 102.145C45.8413 102.237 43.9363 102.296 41.7932 102.329C39.6501 102.361 40.5485 102.377 38.2971 102.377C36.1703 102.377 34.6766 101.955 33.8323 101.105C32.9827 100.256 32.5605 98.9083 32.5605 97.0574V69.8897C32.5605 69.5813 32.7121 69.4243 33.026 69.4243H34.2274C34.5359 69.4243 34.6928 69.5813 34.6928 69.8897V97.3388C34.6928 98.3292 34.9472 99.0923 35.4559 99.628C35.9646 100.169 36.7602 100.44 37.8371 100.44H47.5082V100.429Z" fill="#424242"/>
<path d="M59.0561 101.355C59.0561 101.663 58.8992 101.82 58.5907 101.82H57.3892C57.0808 101.82 56.9238 101.669 56.9238 101.355V69.8792C56.9238 69.5708 57.0754 69.4138 57.3892 69.4138H58.5907C58.8992 69.4138 59.0561 69.5708 59.0561 69.8792V101.355Z" fill="#424242"/>
<path d="M79.1339 101.815C78.7334 101.815 78.4683 101.631 78.3492 101.257L67.888 69.8792C67.796 69.5708 67.888 69.4138 68.164 69.4138H69.5062C69.7822 69.4138 69.9716 69.5383 70.0636 69.7818L79.9673 99.6338L89.8711 69.7818C89.9631 69.5329 90.1471 69.4138 90.4285 69.4138H91.7707C92.0467 69.4138 92.1387 69.5708 92.0467 69.8792L81.5855 101.257C81.4286 101.625 81.1688 101.815 80.8008 101.815H79.1339Z" fill="#424242"/>
<path d="M103.007 101.355C103.007 101.663 102.85 101.82 102.542 101.82H101.34C101.032 101.82 100.875 101.669 100.875 101.355V69.8792C100.875 69.5708 101.027 69.4138 101.34 69.4138H102.542C102.85 69.4138 103.007 69.5708 103.007 69.8792V101.355Z" fill="#424242"/>
<path d="M116.666 93.3004L113.982 101.445C113.89 101.694 113.706 101.813 113.424 101.813H112.082C111.806 101.813 111.714 101.662 111.806 101.348L122.267 69.9644C122.392 69.5964 122.651 69.407 123.052 69.407H124.719C125.087 69.407 125.352 69.591 125.503 69.9644L135.965 101.348C136.057 101.656 135.965 101.813 135.689 101.813H134.346C134.07 101.813 133.881 101.689 133.789 101.445L131.056 93.3004L130.407 91.3576L123.88 71.5934L117.31 91.3576L116.666 93.3004Z" fill="#424242"/>
<path d="M7.50977 112.498H7.802V114.349H9.99382V112.498H10.2861V117.011H9.99382V114.63H7.802V117.011H7.50977V112.498Z" fill="#424242"/>
<path d="M12.2383 115.819V113.741C12.2383 113.297 12.3573 112.961 12.6009 112.734C12.8444 112.507 13.1799 112.393 13.6021 112.393C14.0296 112.393 14.3597 112.512 14.5924 112.756C14.8252 112.999 14.9442 113.329 14.9442 113.751V115.824C14.9442 116.257 14.8143 116.576 14.5492 116.782C14.284 116.988 13.9701 117.091 13.5967 117.091C13.2232 117.091 12.9093 116.988 12.6388 116.782C12.3736 116.571 12.2383 116.252 12.2383 115.819ZM12.5251 113.697V115.819C12.5251 116.143 12.6279 116.392 12.8336 116.555C13.0392 116.723 13.2936 116.804 13.5967 116.804C13.8997 116.804 14.1541 116.723 14.3597 116.56C14.5654 116.398 14.6628 116.149 14.6628 115.808V113.692C14.6628 113.362 14.5654 113.107 14.376 112.929C14.1866 112.75 13.9214 112.664 13.5913 112.664C13.2611 112.664 13.0014 112.75 12.8119 112.929C12.6225 113.113 12.5251 113.367 12.5251 113.697Z" fill="#424242"/>
<path d="M16.4058 112.498H18.9981V112.763H17.8291V117.011H17.5369V112.763H16.4004V112.498H16.4058Z" fill="#424242"/>
<path d="M20.5293 112.498H22.6832V112.768H20.8215V114.349H22.1258L22.0284 114.63H20.8215V116.746H22.6724V117.011H20.5293V112.498Z" fill="#424242"/>
<path d="M24.5625 112.498H24.8547V116.746H26.895V117.011H24.5679V112.498H24.5625Z" fill="#424242"/>
<path d="M33.2097 112.502L33.0474 112.74C32.9391 112.708 32.8201 112.686 32.6902 112.686C32.5603 112.686 32.4304 112.735 32.3059 112.832C32.1273 112.968 32.0408 113.136 32.0408 113.336C32.0408 113.368 32.0407 113.406 32.0462 113.439C32.0786 113.677 32.1869 113.839 32.3601 113.936C32.4845 114.001 32.5928 114.034 32.6902 114.034C32.7876 114.034 32.8688 114.028 32.9337 114.012L33.2368 113.947V113.076H33.5344V113.882L34.0053 113.78L34.0702 114.056L33.5344 114.169V116.128C33.5344 116.518 33.6697 116.756 33.9403 116.843L33.8591 117.07C33.6914 117.016 33.5615 116.929 33.4641 116.81C33.3667 116.691 33.3071 116.545 33.2855 116.388C33.0095 116.843 32.6252 117.07 32.1219 117.07C31.7377 117.07 31.44 116.935 31.2398 116.664C31.0612 116.426 30.9746 116.155 30.9746 115.847C30.9746 115.576 31.0233 115.344 31.1261 115.149C31.229 114.954 31.3534 114.797 31.4996 114.678C31.6457 114.559 31.781 114.467 31.9055 114.402C32.0245 114.337 32.1706 114.267 32.3438 114.191C32.1977 114.169 32.0678 114.093 31.9488 113.958C31.8135 113.801 31.7485 113.596 31.7485 113.347C31.7485 113.022 31.8838 112.773 32.1598 112.594C32.3438 112.481 32.5278 112.421 32.7064 112.421C32.885 112.421 33.0582 112.454 33.2097 112.502ZM33.2422 115.63V114.245C32.5874 114.386 32.1003 114.58 31.7756 114.824C31.6457 114.921 31.532 115.051 31.4346 115.214C31.321 115.398 31.2614 115.614 31.2614 115.863C31.2614 116.112 31.3372 116.334 31.4833 116.523C31.6294 116.713 31.8622 116.805 32.1706 116.805C32.4791 116.805 32.7335 116.686 32.9391 116.442C33.1394 116.204 33.2422 115.933 33.2422 115.63Z" fill="#424242"/>
<path d="M38.6343 112.498H40.2092C40.6205 112.498 40.929 112.622 41.1292 112.871C41.3294 113.12 41.4323 113.456 41.4323 113.878C41.4323 114.603 41.2104 115.063 40.772 115.258L41.4377 117.011H41.14L40.496 115.35C40.404 115.361 40.3228 115.361 40.2633 115.361H38.9211V117.011H38.6289V112.498H38.6343ZM38.9266 112.774V115.074H40.2416C40.8424 115.074 41.1454 114.673 41.1454 113.872C41.1454 113.51 41.0643 113.239 40.9019 113.05C40.7395 112.86 40.5122 112.768 40.22 112.768H38.9266V112.774Z" fill="#424242"/>
<path d="M43.3066 112.498H45.4606V112.768H43.5989V114.349H44.9031L44.8057 114.63H43.5989V116.746H45.4498V117.011H43.3066V112.498Z" fill="#424242"/>
<path d="M47.0703 115.861H47.368C47.3842 116.099 47.5033 116.321 47.7252 116.511C47.947 116.7 48.2339 116.803 48.5911 116.803C48.9482 116.803 49.2459 116.722 49.4786 116.565C49.7113 116.408 49.8304 116.153 49.8304 115.802C49.8304 115.601 49.7654 115.428 49.6356 115.282C49.5057 115.136 49.3433 115.028 49.1485 114.957C48.9536 114.882 48.7426 114.806 48.5153 114.719C48.288 114.638 48.0715 114.551 47.8821 114.47C47.6873 114.389 47.5249 114.27 47.395 114.108C47.2651 113.951 47.2002 113.756 47.2002 113.534C47.2002 113.231 47.3247 112.971 47.5736 112.755C47.8226 112.538 48.1798 112.425 48.6506 112.425C49.0078 112.425 49.3217 112.489 49.5923 112.619L49.5003 112.895C49.2567 112.771 48.9699 112.706 48.6398 112.706C48.3096 112.706 48.039 112.776 47.8226 112.922C47.6061 113.069 47.4979 113.28 47.4979 113.55C47.4979 113.723 47.5628 113.87 47.6927 113.999C47.8226 114.124 47.9849 114.221 48.1852 114.292C48.38 114.357 48.5911 114.432 48.8184 114.519C49.0457 114.606 49.2567 114.687 49.4515 114.779C49.6464 114.865 49.8087 114.995 49.944 115.168C50.0739 115.342 50.1389 115.547 50.1389 115.78C50.1389 116.175 50.0144 116.489 49.76 116.727C49.5111 116.96 49.1322 117.079 48.6398 117.079C48.1419 117.079 47.763 116.954 47.4924 116.705C47.2164 116.462 47.0811 116.18 47.0703 115.861Z" fill="#424242"/>
<path d="M51.6714 112.498H52.4237V117.011H52.1314V112.768L51.666 112.758V112.498H51.6714Z" fill="#424242"/>
<path d="M54.2812 112.491H55.4935C55.9806 112.491 56.3486 112.626 56.6084 112.891C56.8681 113.157 56.9926 113.514 56.9926 113.958V115.727C56.9926 116.588 56.538 117.015 55.6234 117.015H54.2812V112.491ZM54.5735 112.762V116.745H55.5368C55.8182 116.745 56.0726 116.691 56.2891 116.588C56.5651 116.458 56.7004 116.176 56.7004 115.738V113.92C56.7004 113.53 56.5867 113.238 56.3594 113.048C56.1321 112.859 55.8669 112.762 55.5585 112.762H54.5735Z" fill="#424242"/>
<path d="M58.9395 112.498H61.0934V112.768H59.2317V114.349H60.5359L60.4385 114.63H59.2317V116.746H61.0826V117.011H58.9395V112.498Z" fill="#424242"/>
<path d="M62.5918 112.498H62.884L65.4817 116.481V112.498H65.7632V117.011H65.4817L62.884 113.017V117.011H62.5918V112.498Z" fill="#424242"/>
<path d="M69.958 116.864C69.59 117.005 69.2436 117.075 68.9135 117.075C68.8431 117.075 68.7403 117.07 68.5996 117.054C68.4589 117.043 68.3128 116.994 68.1558 116.908C67.9989 116.821 67.8744 116.691 67.777 116.507C67.6796 116.323 67.6309 116.096 67.6309 115.825V113.752C67.6309 113.428 67.6741 113.179 67.7716 113.011C67.8636 112.843 68.0043 112.703 68.1937 112.584C68.3885 112.475 68.6158 112.421 68.8864 112.421C69.2219 112.421 69.525 112.492 69.801 112.632L69.709 112.838C69.4601 112.735 69.2111 112.681 68.9676 112.681C68.6212 112.681 68.3615 112.768 68.1883 112.941C68.1125 113.011 68.053 113.108 67.9989 113.238C67.9447 113.368 67.9231 113.52 67.9231 113.688V115.804C67.9231 116.264 68.0909 116.567 68.4318 116.713C68.5671 116.767 68.7457 116.794 68.9784 116.794C69.2111 116.794 69.5142 116.729 69.8984 116.599L69.958 116.864Z" fill="#424242"/>
<path d="M71.5352 112.498H73.6891V112.768H71.8274V114.349H73.1317L73.0342 114.63H71.8274V116.746H73.6783V117.011H71.5352V112.498Z" fill="#424242"/>
<path d="M75.3027 115.861H75.6004C75.6166 116.099 75.7357 116.321 75.9576 116.511C76.1795 116.7 76.4663 116.803 76.8235 116.803C77.1807 116.803 77.4783 116.722 77.711 116.565C77.9437 116.408 78.0628 116.153 78.0628 115.802C78.0628 115.601 77.9978 115.428 77.868 115.282C77.7381 115.136 77.5757 115.028 77.3809 114.957C77.1861 114.882 76.975 114.806 76.7477 114.719C76.5204 114.638 76.3039 114.551 76.1145 114.47C75.9197 114.389 75.7573 114.27 75.6275 114.108C75.4976 113.951 75.4326 113.756 75.4326 113.534C75.4326 113.231 75.5571 112.971 75.806 112.755C76.055 112.538 76.4122 112.425 76.883 112.425C77.2402 112.425 77.5541 112.489 77.8247 112.619L77.7327 112.895C77.4891 112.771 77.2023 112.706 76.8722 112.706C76.5421 112.706 76.2715 112.776 76.055 112.922C75.8385 113.069 75.7303 113.28 75.7303 113.55C75.7303 113.723 75.7952 113.87 75.9251 113.999C76.055 114.124 76.2173 114.221 76.4176 114.292C76.6124 114.357 76.8235 114.432 77.0508 114.519C77.2781 114.606 77.4891 114.687 77.684 114.779C77.8788 114.865 78.0411 114.995 78.1764 115.168C78.3063 115.342 78.3713 115.547 78.3713 115.78C78.3713 116.175 78.2468 116.489 77.9924 116.727C77.7435 116.96 77.3647 117.079 76.8722 117.079C76.3743 117.079 75.9955 116.954 75.7249 116.705C75.4489 116.462 75.3081 116.18 75.3027 115.861Z" fill="#424242"/>
<path d="M82.7754 115.861H83.073C83.0893 116.099 83.2083 116.321 83.4302 116.511C83.6521 116.7 83.9389 116.803 84.2961 116.803C84.6533 116.803 84.951 116.722 85.1837 116.565C85.4164 116.408 85.5355 116.153 85.5355 115.802C85.5355 115.601 85.4705 115.428 85.3406 115.282C85.2107 115.136 85.0484 115.028 84.8536 114.957C84.6587 114.882 84.4477 114.806 84.2204 114.719C83.9931 114.638 83.7766 114.551 83.5872 114.47C83.3923 114.389 83.23 114.27 83.1001 114.108C82.9702 113.951 82.9053 113.756 82.9053 113.534C82.9053 113.231 83.0297 112.971 83.2787 112.755C83.5276 112.538 83.8848 112.425 84.3557 112.425C84.7128 112.425 85.0267 112.489 85.2973 112.619L85.2053 112.895C84.9618 112.771 84.675 112.706 84.3448 112.706C84.0147 112.706 83.7441 112.776 83.5276 112.922C83.3112 113.069 83.2029 113.28 83.2029 113.55C83.2029 113.723 83.2679 113.87 83.3978 113.999C83.5276 114.124 83.69 114.221 83.8902 114.292C84.0851 114.357 84.2961 114.432 84.5234 114.519C84.7507 114.606 84.9618 114.687 85.1566 114.779C85.3514 114.865 85.5138 114.995 85.6491 115.168C85.779 115.342 85.8439 115.547 85.8439 115.78C85.8439 116.175 85.7195 116.489 85.4651 116.727C85.2162 116.96 84.8373 117.079 84.3448 117.079C83.8469 117.079 83.4681 116.954 83.1975 116.705C82.9215 116.462 82.7808 116.18 82.7754 115.861Z" fill="#424242"/>
<path d="M87.1523 112.498H87.4608L88.6947 116.649L89.9286 112.498H90.2371L88.895 117.011H88.4999L87.1523 112.498Z" fill="#424242"/>
<path d="M91.9961 112.498H94.15V112.768H92.2883V114.349H93.5926L93.4952 114.63H92.2883V116.746H94.1392V117.011H91.9961V112.498Z" fill="#424242"/>
<path d="M95.5249 112.498H98.1172V112.763H96.9483V117.011H96.656V112.763H95.5195V112.498H95.5249Z" fill="#424242"/>
<path d="M99.3335 112.498H100.086V117.011H99.7936V112.768L99.3281 112.758V112.498H99.3335Z" fill="#424242"/>
<path d="M104.508 115.861H104.805C104.822 116.099 104.941 116.321 105.163 116.511C105.385 116.7 105.671 116.803 106.029 116.803C106.386 116.803 106.683 116.722 106.916 116.565C107.149 116.408 107.268 116.153 107.268 115.802C107.268 115.601 107.203 115.428 107.073 115.282C106.943 115.136 106.781 115.028 106.586 114.957C106.391 114.882 106.18 114.806 105.953 114.719C105.725 114.638 105.509 114.551 105.32 114.47C105.125 114.389 104.962 114.27 104.833 114.108C104.703 113.951 104.638 113.756 104.638 113.534C104.638 113.231 104.762 112.971 105.011 112.755C105.26 112.538 105.617 112.425 106.088 112.425C106.445 112.425 106.759 112.489 107.03 112.619L106.938 112.895C106.694 112.771 106.407 112.706 106.077 112.706C105.747 112.706 105.477 112.776 105.26 112.922C105.044 113.069 104.935 113.28 104.935 113.55C104.935 113.723 105 113.87 105.13 113.999C105.26 114.124 105.422 114.221 105.623 114.292C105.817 114.357 106.029 114.432 106.256 114.519C106.483 114.606 106.694 114.687 106.889 114.779C107.084 114.865 107.246 114.995 107.382 115.168C107.511 115.342 107.576 115.547 107.576 115.78C107.576 116.175 107.452 116.489 107.198 116.727C106.949 116.96 106.57 117.079 106.077 117.079C105.579 117.079 105.201 116.954 104.93 116.705C104.654 116.462 104.513 116.18 104.508 115.861Z" fill="#424242"/>
<path d="M108.511 112.498H111.104V112.763H109.935V117.011H109.642V112.763H108.506V112.498H108.511Z" fill="#424242"/>
<path d="M112.75 112.498H114.904V112.768H113.042V114.349H114.346L114.249 114.63H113.042V116.746H114.893V117.011H112.75V112.498Z" fill="#424242"/>
<path d="M116.727 112.498H118.88V112.774H117.019V114.349H118.193L118.069 114.63H117.019V117.011H116.727V112.498Z" fill="#424242"/>
<path d="M120.975 112.498H121.246L122.751 117.011H122.442L121.89 115.361H120.342L119.801 117.011H119.498L120.975 112.498ZM121.111 112.969L120.429 115.079H121.809L121.111 112.969Z" fill="#424242"/>
<path d="M124.129 112.498H124.421L127.019 116.481V112.498H127.3V117.011H127.019L124.421 113.017V117.011H124.129V112.498Z" fill="#424242"/>
</svg>
