<svg width="168" height="128" viewBox="0 0 168 128" fill="none" xmlns="http://www.w3.org/2000/svg">
<path d="M152.829 90.8583C149.367 101.331 145.898 111.804 142.443 122.277C142.111 123.283 141.836 124.303 141.47 125.295C141.061 126.401 140.631 127.796 139.086 127.208C137.465 126.592 138.713 125.366 138.974 124.572C142.309 114.291 145.729 104.038 149.134 93.7776C149.649 92.2187 150.291 90.6882 150.7 89.101C151.073 87.6272 151.743 86.9327 153.358 86.9186C154.916 86.9044 155.361 87.8256 155.741 88.9876C159.697 100.934 163.66 112.874 167.587 124.827C167.848 125.628 168.539 126.776 167.207 127.208C165.888 127.633 165.38 126.585 165.028 125.501C163.632 121.256 162.2 117.026 160.804 112.782C158.378 105.427 155.967 98.0645 153.548 90.7095C153.309 90.7591 153.076 90.8087 152.836 90.8512L152.829 90.8583Z" fill="white"/>
<path d="M14.3785 91.0142C10.7682 101.955 7.15097 112.888 3.54075 123.828C3.27985 124.608 3.04716 125.401 2.76511 126.174C2.43371 127.081 1.72858 127.492 0.818977 127.258C-0.422037 126.939 0.0503946 126.004 0.297187 125.267C4.33754 113.093 8.40609 100.934 12.4112 88.7538C12.8554 87.3933 13.5746 86.9186 14.9637 86.9398C16.2541 86.9611 16.8182 87.535 17.199 88.69C21.2182 100.863 25.2797 113.023 29.32 125.196C29.5668 125.933 30.0886 126.918 28.8899 127.23C27.3175 127.641 26.9649 126.415 26.5771 125.231C23.6085 116.183 20.6118 107.134 17.6079 98.0928C16.8111 95.6908 15.972 93.3029 15.1471 90.9079C14.8932 90.9433 14.6394 90.9787 14.3855 91.0142H14.3785Z" fill="white"/>
<path d="M99.0636 123.708C102.787 112.47 106.39 101.579 109.993 90.6953C110.254 89.9159 110.529 89.1364 110.74 88.3428C111.044 87.202 111.826 86.7839 112.863 87.0603C114.132 87.4075 113.505 88.3995 113.279 89.0797C109.309 101.147 105.311 113.2 101.299 125.253C100.918 126.401 100.41 127.322 98.8803 127.378C96.8989 127.449 96.6098 126.025 96.1726 124.714C92.3791 113.334 88.5573 101.969 84.9189 90.5394C84.6086 89.5758 82.6202 87.8397 84.8836 87.117C87.0766 86.4155 86.999 88.7892 87.4291 90.0859C90.5387 99.3399 93.5425 108.629 96.6592 117.876C97.2797 119.712 97.5124 121.745 99.0495 123.708H99.0636Z" fill="white"/>
<path d="M42.8725 105.455C42.8725 110.642 42.9359 115.829 42.8513 121.015C42.8019 124.169 44.184 125.536 47.3077 125.437C50.4737 125.331 53.6397 125.394 56.8057 125.437C57.6871 125.444 58.9492 125.146 59.0832 126.436C59.2313 127.874 57.8774 127.641 57.0454 127.676C53.5339 127.839 50.0083 128.101 46.5038 127.959C41.8712 127.768 40.2071 125.94 40.1859 121.299C40.1366 110.691 40.1507 100.084 40.2 89.4766C40.2 88.5837 39.5795 87.1312 41.3141 87.039C43.1898 86.9469 42.8442 88.442 42.8513 89.5474C42.8795 94.8476 42.8654 100.155 42.8725 105.455Z" fill="white"/>
<path d="M55.7198 37.2615C55.7198 27.9366 55.6916 18.6117 55.7621 9.28681C55.7691 8.2948 54.9371 6.51627 56.6928 6.40998C58.6249 6.28952 57.7858 8.146 57.7928 9.10258C57.8492 27.9933 57.8492 46.8769 57.7928 65.7675C57.7928 66.7241 58.6249 68.5735 56.6999 68.4672C54.9441 68.368 55.7691 66.5966 55.7621 65.5975C55.6916 56.1521 55.7198 46.7068 55.7198 37.2685V37.2615Z" fill="white"/>
<path d="M83.9247 30.5158C83.9247 21.1909 83.9035 11.866 83.9599 2.54115C83.9599 1.64834 83.2689 0.0965544 84.8977 0.00443925C86.6041 -0.0947616 85.9977 1.49245 85.9977 2.37817C86.033 21.2689 86.033 40.1525 85.9977 59.0431C85.9977 59.9218 86.5971 61.5161 84.8836 61.4027C83.2618 61.2964 83.9599 59.7446 83.9529 58.8518C83.8965 49.4065 83.9176 39.9611 83.9176 30.5229L83.9247 30.5158Z" fill="white"/>
<path d="M88.8605 30.5158C88.8605 21.1909 88.8394 11.866 88.8958 2.54115C88.8958 1.64834 88.2048 0.0965544 89.8336 0.00443925C91.54 -0.0947616 90.9336 1.49245 90.9336 2.37817C90.9688 21.2689 90.9688 40.1525 90.9336 59.0431C90.9336 59.9218 91.5329 61.5161 89.8195 61.4027C88.1977 61.2964 88.8958 59.7446 88.8887 58.8518C88.8323 49.4065 88.8535 39.9611 88.8535 30.5229L88.8605 30.5158Z" fill="white"/>
<path d="M94.5015 30.5158C94.5015 21.1909 94.4803 11.866 94.5368 2.54115C94.5368 1.64834 93.8457 0.0965544 95.4746 0.00443925C97.181 -0.0947616 96.5745 1.49245 96.5745 2.37817C96.6098 21.2689 96.6098 40.1525 96.5745 59.0431C96.5745 59.9218 97.1739 61.5161 95.4604 61.4027C93.8387 61.2964 94.5367 59.7446 94.5297 58.8518C94.4733 49.4065 94.4944 39.9611 94.4944 30.5229L94.5015 30.5158Z" fill="white"/>
<path d="M99.4373 30.8134C99.4373 21.4885 99.4091 12.1636 99.4797 2.83875C99.4867 1.85383 98.6617 0.0540379 100.474 0.0256947C102.321 -0.00264836 101.503 1.8184 101.51 2.79623C101.567 21.446 101.567 40.1028 101.51 58.7526C101.51 59.6879 102.378 61.5161 100.354 61.3885C98.8027 61.2893 99.4867 59.7021 99.4797 58.8022C99.4232 49.4773 99.4444 40.1525 99.4444 30.8276L99.4373 30.8134Z" fill="white"/>
<path d="M104.373 30.4379C104.373 21.2334 104.345 12.0219 104.416 2.81749C104.423 1.83966 103.605 0.0256948 105.431 0.0256948C107.257 0.0256948 106.446 1.83966 106.446 2.81749C106.496 21.4673 106.496 40.1241 106.446 58.7739C106.446 59.7092 107.292 61.5444 105.262 61.3814C103.732 61.261 104.416 59.6738 104.408 58.7739C104.352 49.3285 104.373 39.8832 104.373 30.4449V30.4379Z" fill="white"/>
<path d="M112.115 30.8205C112.115 40.1454 112.137 49.4703 112.08 58.7951C112.08 59.695 112.743 61.2822 111.199 61.3744C109.189 61.4948 110.049 59.6738 110.049 58.7314C109.993 40.0816 109.993 21.4247 110.049 2.77498C110.049 1.80423 109.239 -0.0168174 111.093 0.0186115C112.898 0.0540404 112.073 1.85383 112.08 2.83875C112.151 12.1636 112.122 21.4885 112.122 30.8134L112.115 30.8205Z" fill="white"/>
<path d="M61.3608 37.3111C61.3608 27.8799 61.3396 18.4487 61.396 9.01755C61.396 8.12474 60.7755 6.49501 62.2915 6.49501C63.7511 6.49501 63.2998 8.12474 63.2716 9.07423C63.0389 16.7056 64.005 24.3724 62.1998 31.9542C61.3607 35.4758 63.187 38.9195 63.2505 42.427C63.3915 50.2072 63.3069 57.9874 63.2857 65.7675C63.2857 66.6462 63.6101 68.0563 62.355 68.0633C60.705 68.0704 61.4031 66.4761 61.4031 65.6046C61.3466 56.1734 61.3678 46.7422 61.3678 37.3111H61.3608Z" fill="white"/>
<path d="M124.765 107.113C124.765 101.218 124.737 95.3223 124.794 89.4269C124.801 88.527 124.215 87.1028 125.964 87.039C127.593 86.9753 127.424 88.2507 127.424 89.2852C127.438 101.196 127.438 113.108 127.424 125.012C127.424 126.082 127.466 127.336 125.915 127.258C124.215 127.166 124.801 125.713 124.794 124.806C124.737 118.911 124.765 113.016 124.765 107.12V107.113Z" fill="white"/>
<path d="M70.3722 106.83C70.3722 101.048 70.3511 95.2656 70.3934 89.4836C70.4004 88.5483 69.9068 87.1099 71.578 87.0532C73.2562 86.9965 72.8965 88.4279 72.8965 89.3844C72.9247 101.182 72.9247 112.98 72.8965 124.778C72.8965 125.742 73.235 127.166 71.6626 127.23C69.9844 127.293 70.3934 125.82 70.3863 124.877C70.344 118.861 70.3652 112.845 70.3652 106.83H70.3722Z" fill="white"/>
<path d="M66.5363 48.3365C68.2709 48.953 68.412 49.8387 68.412 50.8165C68.412 56.0104 68.4261 61.2043 68.3979 66.3982C68.3979 67.0288 68.687 68.0137 67.6857 68.0846C66.5081 68.1696 66.5504 67.1422 66.5504 66.3202C66.5363 60.439 66.5504 54.5649 66.5504 48.3294L66.5363 48.3365Z" fill="white"/>
<path d="M66.8254 19.4336C66.212 15.4514 66.6139 11.5188 66.5928 7.60039C66.5928 6.97685 66.8607 6.40998 67.594 6.44541C67.8408 6.45958 68.285 6.81387 68.278 7.00519C68.1088 11.0441 69.244 15.1467 67.6716 19.1006C67.6222 19.2282 67.3049 19.2494 66.8184 19.4266L66.8254 19.4336Z" fill="white"/>
<path d="M78.9324 61.8562C78.9324 63.5001 78.9324 65.144 78.9324 66.795C78.9324 67.3973 78.8619 68.0279 78.1074 68.1129C77.4164 68.1909 77.0004 67.7728 77.0004 67.0855C76.9863 63.4434 77.0004 59.8013 77.0004 56.1592C77.0004 55.6207 77.2965 55.2381 77.8465 55.3444C78.467 55.4648 78.883 55.9112 78.8901 56.5702C78.9183 58.3346 78.8971 60.0918 78.8971 61.8562C78.9042 61.8562 78.9183 61.8562 78.9253 61.8562H78.9324Z" fill="white"/>
<path d="M71.8882 52.9706C73.5946 53.3533 73.6017 54.2461 73.6087 55.0468C73.6369 58.8164 73.6369 62.586 73.6087 66.3557C73.6087 67.0217 73.7074 67.95 72.8049 68.0421C71.7543 68.1554 71.8953 67.1847 71.8953 66.5399C71.8741 62.0829 71.8812 57.626 71.8812 52.9706H71.8882Z" fill="white"/>
<path d="M76.81 9.88201C77.3529 8.63492 76.1331 6.60838 77.9875 6.53044C79.6305 6.46667 78.8619 8.37983 78.8901 9.39309C78.9183 10.4418 79.574 12.2487 78.0298 12.3833C76.0414 12.5675 77.5927 10.5339 76.81 9.88201Z" fill="white"/>
<path d="M73.3337 6.49501C73.7004 9.30098 74.067 12.0999 72.2267 14.8421V6.48084C72.5933 6.48084 72.9671 6.49501 73.3337 6.49501Z" fill="white"/>
</svg>
