<svg width="37" height="22" viewBox="0 0 37 22" fill="none" xmlns="http://www.w3.org/2000/svg">
<path d="M35.9244 20.1176L28.2232 6.5765C28.0748 6.31086 27.862 6.09058 27.606 5.93776C27.3501 5.78495 27.0601 5.70499 26.7651 5.70592C26.4708 5.70435 26.1814 5.78342 25.9257 5.93519C25.67 6.08696 25.4571 6.30609 25.3084 6.57062L21.1289 13.9235L14.3142 1.86916C14.1645 1.60447 13.9512 1.38506 13.6952 1.23262C13.4392 1.08018 13.1495 1 12.8547 1C12.5598 1 12.2701 1.08018 12.0141 1.23262C11.7581 1.38506 11.5448 1.60447 11.3952 1.86916L1.07564 20.1176C1.02617 20.2069 1.00009 20.3082 1 20.4112C0.999913 20.5143 1.02583 20.6156 1.07515 20.705C1.12446 20.7943 1.19546 20.8686 1.28101 20.9204C1.36656 20.9722 1.46367 20.9996 1.56261 21H35.4388C35.5376 20.9994 35.6345 20.9717 35.7199 20.9199C35.8053 20.868 35.8761 20.7937 35.9252 20.7044C35.9744 20.615 36.0001 20.5138 36 20.4109C35.9999 20.3079 35.9738 20.2068 35.9244 20.1176ZM12.3677 2.47063C12.4175 2.38217 12.4887 2.30882 12.5741 2.25786C12.6595 2.20689 12.7562 2.18008 12.8547 2.18008C12.9531 2.18008 13.0498 2.20689 13.1353 2.25786C13.2207 2.30882 13.2918 2.38217 13.3416 2.47063L17.1697 9.23532H8.5397L12.3677 2.47063ZM2.55067 19.8235L7.87346 10.4118H17.8359L23.1587 19.8235H2.55067ZM24.47 19.8235L21.7881 15.075L26.2795 7.1765C26.3295 7.08872 26.4006 7.01601 26.4857 6.9655C26.5708 6.915 26.6671 6.88844 26.7651 6.88844C26.863 6.88844 26.9593 6.915 27.0445 6.9655C27.1296 7.01601 27.2006 7.08872 27.2506 7.1765L34.4493 19.8235H24.47Z" fill="#00A21A" stroke="#00A21A" stroke-width="0.5"/>
</svg>
