<svg width="52" height="52" viewBox="0 0 52 52" fill="none" xmlns="http://www.w3.org/2000/svg">
<path fill-rule="evenodd" clip-rule="evenodd" d="M26 52C40.3594 52 52 40.3594 52 26C52 11.6406 40.3594 0 26 0C11.6406 0 0 11.6406 0 26C0 40.3594 11.6406 52 26 52ZM13 20.4837C13 16.357 16.3574 13 20.4837 13H31.5163C35.643 13 39 16.3574 39 20.4837V31.6175C39 35.7438 35.643 39.1012 31.5163 39.1012H20.4837C16.357 39.1012 13 35.7438 13 31.6175V20.4837ZM31.5163 36.6245C34.277 36.6245 36.5233 34.3783 36.5233 31.6175V20.4837C36.5233 17.723 34.277 15.4767 31.5163 15.4767H20.4837C17.723 15.4767 15.4767 17.723 15.4767 20.4837V31.6175C15.4767 34.3783 17.723 36.6245 20.4837 36.6245H31.5163ZM19.2339 26.0028C19.2339 22.3 22.2788 19.2879 26.0206 19.2879C29.7625 19.2879 32.8074 22.3 32.8074 26.0028C32.8074 29.7051 29.7625 32.7172 26.0206 32.7172C22.2784 32.7172 19.2339 29.7051 19.2339 26.0028ZM21.7059 26.0028C21.7059 28.3417 23.6413 30.2452 26.0206 30.2452C28.4 30.2452 30.3353 28.3421 30.3353 26.0028C30.3353 23.6634 28.3995 21.7604 26.0206 21.7604C23.6413 21.7604 21.7059 23.6634 21.7059 26.0028ZM32.9289 20.6105C33.8108 20.6105 34.5257 19.8955 34.5257 19.0136C34.5257 18.1317 33.8108 17.4168 32.9289 17.4168C32.047 17.4168 31.332 18.1317 31.332 19.0136C31.332 19.8955 32.047 20.6105 32.9289 20.6105Z" fill="#B7893A"/>
</svg>
