<svg width="52" height="52" viewBox="0 0 52 52" fill="none" xmlns="http://www.w3.org/2000/svg">
<path fill-rule="evenodd" clip-rule="evenodd" d="M26 52C40.3594 52 52 40.3594 52 26C52 11.6406 40.3594 0 26 0C11.6406 0 0 11.6406 0 26C0 40.3594 11.6406 52 26 52ZM36.2766 15.0763C33.6009 12.3973 30.0424 10.9214 26.2513 10.92C18.44 10.92 12.082 17.2771 12.0792 25.0911C12.0782 27.589 12.7308 30.0272 13.9707 32.176L11.96 39.52L19.4728 37.5495C21.5427 38.6787 23.8736 39.2736 26.2451 39.2746H26.2508C34.0615 39.2746 40.4195 32.9165 40.4229 25.1029C40.4252 21.3156 38.9526 17.7552 36.2766 15.0763ZM26.2517 36.8808H26.247C24.1331 36.8799 22.06 36.3119 20.2517 35.2389L19.8214 34.9836L15.3629 36.153L16.5527 31.8062L16.2728 31.3603C15.0938 29.4848 14.471 27.3175 14.472 25.0916C14.4744 18.5969 19.7589 13.3133 26.256 13.3133C29.4022 13.3142 32.3596 14.5414 34.5836 16.7678C36.8076 18.9941 38.0314 21.9535 38.0305 25.1011C38.0281 31.5967 32.744 36.8808 26.2517 36.8808ZM32.7125 28.0586C32.3582 27.8813 30.6175 27.0248 30.2927 26.9066C29.9683 26.7884 29.7318 26.7292 29.4959 27.0839C29.2599 27.4386 28.5813 28.2359 28.3746 28.4723C28.168 28.7088 27.9613 28.7381 27.6076 28.5608C27.5497 28.5318 27.4707 28.4976 27.3733 28.4553C26.8746 28.239 25.8911 27.8125 24.7599 26.803C23.7072 25.8639 22.9964 24.7044 22.7898 24.3501C22.5831 23.9955 22.7675 23.804 22.9449 23.6276C23.0512 23.5216 23.1733 23.3729 23.2953 23.2242C23.3562 23.1501 23.4171 23.0759 23.4759 23.0071C23.6259 22.8319 23.6912 22.6988 23.7797 22.5185C23.7956 22.4862 23.8122 22.4524 23.8301 22.4165C23.9483 22.1801 23.8893 21.9734 23.8008 21.7961C23.7417 21.6776 23.4061 20.8607 23.1018 20.12C22.9505 19.7517 22.8069 19.4022 22.7089 19.1668C22.4551 18.5572 22.1979 18.5588 21.9915 18.56C21.9641 18.5603 21.9376 18.5604 21.9121 18.5591C21.7059 18.5487 21.4694 18.5468 21.2335 18.5468C20.9975 18.5468 20.614 18.6352 20.2891 18.9899C20.2682 19.0128 20.2448 19.0378 20.2194 19.0649C19.8504 19.4589 19.0497 20.3137 19.0497 21.9441C19.0497 23.6829 20.3122 25.3629 20.4944 25.6054L20.4958 25.6071C20.5073 25.6225 20.5279 25.6521 20.5573 25.6943C20.98 26.3007 23.224 29.5199 26.545 30.9541C27.3901 31.3191 28.0493 31.5367 28.5638 31.6998C29.4121 31.9694 30.1839 31.9315 30.7944 31.8403C31.4749 31.7386 32.8893 30.9839 33.1844 30.1568C33.4795 29.3297 33.4795 28.6204 33.3911 28.4728C33.3197 28.3534 33.1523 28.2724 32.9044 28.1525C32.8449 28.1238 32.7808 28.0928 32.7125 28.0586Z" fill="#B7893A"/>
</svg>
