<svg width="466" height="138" viewBox="0 0 466 138" fill="none" xmlns="http://www.w3.org/2000/svg">
<path d="M139.104 66.1945C138.222 63.0061 136.092 60.4 132.942 58.6611C128.763 56.3536 122.968 55.7611 118.177 57.149C113.884 58.3945 110.084 60.7202 106.409 62.9708C105.541 63.5018 104.679 64.0294 103.818 64.5376C103.271 64.8601 102.745 65.2168 102.213 65.5609L95.1803 58.6931L95.1814 58.6919L73.5123 36.9704C74.0825 36.1659 74.6528 35.3364 75.2034 34.4658C75.7287 33.6328 76.284 32.8032 76.8439 31.9691C78.8046 29.0428 80.8321 26.0163 81.9495 22.4815C81.9542 22.4667 81.9576 22.4507 81.9622 22.4359C101.075 26.308 109.352 39.009 112.45 45.412L117.863 43.9694C112.721 31.8996 100.829 20.8451 82.9691 17.177C83.3976 11.6903 81.9749 5.80011 77.4809 2.48183C74.4155 0.219892 70.4652 -0.557265 66.9194 0.404487C63.6961 1.27508 61.0615 3.38318 59.3035 6.49976C57.564 9.5776 56.7921 13.5443 57.0905 17.3275C38.1459 21.628 23.7009 35.4047 19.3337 56.1679C13.2788 55.2209 6.2654 56.3821 2.50987 61.3584C0.223152 64.3884 -0.562518 68.2946 0.407467 71.8066C1.2876 74.995 3.4188 77.5999 6.56953 79.34C9.24678 80.8179 12.5887 81.5939 15.9042 81.5939C16.9894 81.5939 18.0676 81.5005 19.1229 81.3318C23.1606 101.351 37.4743 115.41 56.6182 120.111C56.0042 125.795 57.3417 132.056 62.0314 135.518C64.2318 137.141 66.8871 138 69.5229 138C70.5586 138 71.5919 137.867 72.5918 137.597C75.8163 136.725 78.4498 134.617 80.2089 131.5C81.9392 128.437 82.7099 124.494 82.423 120.729C97.6421 117.728 110.195 108.619 117.274 94.6573L111.9 92.9173C105.478 104.912 94.2483 112.671 81.2272 115.364C79.9036 111.734 77.8484 108.447 75.852 105.255C75.314 104.398 74.7806 103.544 74.2668 102.692C73.9408 102.152 73.5803 101.632 73.2324 101.106L80.1893 94.1377L102.137 72.7159C102.946 73.2777 103.793 73.8463 104.669 74.3888C105.509 74.9084 106.347 75.4576 107.19 76.0091C110.149 77.9497 113.209 79.9564 116.784 81.0618C118.999 81.7466 121.499 82.1432 124.015 82.1432C128.99 82.1432 134.022 80.5911 137.001 76.6427C139.288 73.6116 140.074 69.7053 139.104 66.1945ZM64.1938 9.20042C65.2179 7.38745 66.6325 6.22742 68.3974 5.74882C68.9043 5.61208 69.4354 5.54485 69.9733 5.54485C71.4179 5.54485 72.9156 6.028 74.1309 6.9248C76.6757 8.80273 77.58 12.5722 77.3853 16.295C77.3035 17.8619 77.0466 19.4207 76.6031 20.828C76.5213 21.0856 76.3992 21.334 76.3036 21.5892C75.3693 24.0825 73.8291 26.4367 72.1737 28.9084C71.5873 29.7835 71.0044 30.6541 70.4526 31.527C70.289 31.7868 70.1219 32.0443 69.9526 32.2996C69.4572 31.4802 68.9435 30.6598 68.4274 29.8336C66.7616 27.1717 65.0601 24.4358 63.9069 21.6394C63.6212 20.9443 63.3586 20.2469 63.1512 19.545C62.8517 18.5353 62.6973 17.4494 62.6501 16.3475C62.5418 13.812 63.0706 11.1912 64.1938 9.20042ZM58.2644 22.5806C59.5892 26.2339 61.6547 29.5408 63.6627 32.7508C64.1995 33.6066 64.7317 34.4578 65.2455 35.309C65.5669 35.8412 65.9206 36.3528 66.2639 36.8713L58.0663 44.8832C53.9237 48.8362 52.0517 50.6218 51.1865 51.6053L50.9976 51.791L50.9745 51.7705C50.8778 51.8822 50.6508 52.1158 50.1382 52.6308L37.268 65.2111C36.4904 64.6721 35.6852 64.1342 34.8431 63.6123C34.0033 63.0927 33.1658 62.5435 32.3236 61.9919C29.9321 60.4228 27.4588 58.8378 24.717 57.6937C28.4748 38.7469 41.1284 26.4242 58.2644 22.5806ZM19.7576 75.534C19.2853 75.6707 18.7946 75.7744 18.2946 75.8565C15.2349 76.3647 11.7823 75.8724 9.30091 74.5027C7.46693 73.4897 6.29304 72.0903 5.81035 70.3457C5.30002 68.4952 5.75505 66.3221 6.99922 64.6732C8.73759 62.3703 12.0749 61.404 15.5125 61.404C16.4929 61.404 17.479 61.4849 18.4409 61.633C19.3452 61.7732 20.2276 61.9714 21.0559 62.2278C22.0144 62.5241 22.9452 62.9423 23.8703 63.4038C25.6582 64.2972 27.4115 65.4196 29.2282 66.6104C30.1118 67.1904 30.9908 67.7659 31.8721 68.3117C32.1347 68.4724 32.3951 68.6376 32.6531 68.8051C31.8225 69.2974 30.9919 69.8056 30.1567 70.3173C28.0601 71.6004 25.9185 72.9119 23.7366 73.9671C22.4245 74.6018 21.0974 75.1454 19.7576 75.534ZM57.8209 114.853C40.822 110.639 27.9437 98.1249 24.4889 79.7228C27.5336 78.4386 30.3537 76.7122 33.1047 75.0292C33.9722 74.4981 34.8339 73.9706 35.6944 73.4635C36.0492 73.2538 36.3879 73.0191 36.7358 72.798L65.9736 101.066C65.4137 101.857 64.8527 102.676 64.309 103.535C63.7836 104.366 63.2284 105.194 62.6708 106.027C60.8357 108.765 58.9729 111.607 57.8209 114.853ZM75.5352 116.191C75.8509 116.943 76.1354 117.697 76.36 118.456C76.6492 119.43 76.8036 120.478 76.8577 121.54C76.9867 124.109 76.458 126.779 75.3175 128.8C74.2945 130.613 72.8798 131.774 71.115 132.252C69.2453 132.758 67.0484 132.307 65.3815 131.076C62.718 129.112 61.8333 125.077 62.1455 121.19C62.2572 119.799 62.513 118.425 62.9093 117.173C63.0429 116.749 63.2295 116.338 63.4 115.923C64.3493 113.609 65.7916 111.399 67.3399 109.089C67.9262 108.214 68.508 107.346 69.0598 106.474C69.2222 106.214 69.3904 105.957 69.5586 105.702C70.0563 106.522 70.5701 107.345 71.0873 108.171C72.7186 110.778 74.3855 113.455 75.5352 116.191ZM82.9276 83.5083C82.923 83.5129 82.9218 83.514 76.2287 90.2166L69.5771 96.4714L41.3058 69.2712L56.609 54.4677C56.6401 54.4335 57.1873 53.8888 66.9989 44.0605L69.9538 41.3017C69.9538 41.3017 84.3975 55.9468 84.4091 55.9582C84.4137 55.9616 84.4206 55.9696 91.2047 62.597L97.6778 68.7732C97.6778 68.7732 82.946 83.4901 82.9276 83.5083ZM132.511 73.3279C129.813 76.906 123.256 77.2569 118.456 75.7733C115.641 74.9015 113.039 73.1957 110.284 71.3907C109.399 70.8107 108.52 70.2352 107.64 69.6894C107.378 69.5276 107.117 69.3623 106.859 69.1948C107.689 68.7037 108.52 68.1943 109.357 67.6827C112.715 65.627 116.188 63.5018 119.754 62.4671C123.123 61.4917 127.325 61.9053 130.21 63.4984C132.043 64.5114 133.217 65.9108 133.7 67.6553C134.211 69.5059 133.756 71.6778 132.511 73.3279Z" fill="#B7893A"/>
<path d="M176.448 61.9886C174.595 61.0029 173.137 59.6366 172.077 57.8886C171.018 56.1406 170.488 54.1658 170.488 51.9608C170.488 49.7581 171.018 47.7833 172.077 46.0342C173.137 44.2862 174.595 42.9199 176.448 41.9353C178.301 40.9497 180.385 40.4562 182.697 40.4562C184.645 40.4562 186.408 40.7958 187.982 41.4738C189.557 42.1518 190.878 43.1261 191.949 44.3978L188.609 47.4495C187.087 45.7117 185.203 44.8422 182.953 44.8422C181.561 44.8422 180.319 45.1442 179.227 45.7482C178.135 46.3532 177.283 47.1942 176.673 48.2756C176.061 49.3559 175.756 50.5843 175.756 51.9608C175.756 53.3396 176.061 54.568 176.673 55.6483C177.283 56.7285 178.135 57.5706 179.227 58.1746C180.319 58.7785 181.561 59.0805 182.953 59.0805C185.203 59.0805 187.087 58.2008 188.609 56.4425L191.949 59.493C190.878 60.7852 189.551 61.772 187.966 62.4489C186.38 63.1269 184.614 63.4654 182.664 63.4654C180.373 63.4654 178.301 62.9731 176.448 61.9886Z" fill="#B7893A"/>
<path d="M211.42 58.3179H200.977L198.985 63.0845H193.653L203.676 40.8377H208.818L218.872 63.0845H213.411L211.42 58.3179ZM209.781 54.4082L206.214 45.8915L202.649 54.4082H209.781Z" fill="#B7893A"/>
<path d="M225.057 62.7509C223.395 62.2734 222.063 61.6547 221.056 60.8912L222.824 57.0146C223.788 57.7142 224.933 58.2749 226.262 58.6988C227.589 59.1238 228.917 59.3346 230.245 59.3346C231.723 59.3346 232.815 59.1181 233.524 58.684C234.229 58.2498 234.585 57.6709 234.585 56.9508C234.585 56.422 234.374 55.981 233.956 55.6323C233.539 55.2825 233.003 55.0022 232.35 54.7902C231.697 54.5794 230.812 54.3458 229.7 54.0906C227.986 53.6895 226.582 53.2861 225.491 52.8838C224.399 52.4816 223.461 51.8343 222.679 50.9444C221.897 50.0544 221.506 48.8682 221.506 47.3857C221.506 46.0934 221.861 44.922 222.566 43.8725C223.273 42.8242 224.339 41.9935 225.764 41.3793C227.188 40.7639 228.927 40.4574 230.985 40.4574C232.419 40.4574 233.823 40.6272 235.194 40.9656C236.564 41.3052 237.763 41.7918 238.792 42.4276L237.185 46.3362C235.109 45.1727 233.03 44.5881 230.953 44.5881C229.496 44.5881 228.418 44.8217 227.722 45.2878C227.027 45.7539 226.68 46.3681 226.68 47.1304C226.68 47.8939 227.081 48.4602 227.885 48.8317C228.688 49.202 229.913 49.5678 231.563 49.9279C233.276 50.3302 234.68 50.7336 235.771 51.1358C236.865 51.538 237.801 52.1739 238.582 53.0422C239.364 53.9117 239.755 55.0865 239.755 56.569C239.755 57.8407 239.397 59.0007 238.68 60.0491C237.961 61.0986 236.886 61.9304 235.45 62.5446C234.016 63.1588 232.269 63.4654 230.213 63.4654C228.435 63.4654 226.715 63.2283 225.057 62.7509Z" fill="#B7893A"/>
<path d="M259.74 58.3179H249.297L247.306 63.0845H241.973L251.997 40.8377H257.138L267.193 63.0845H261.731L259.74 58.3179ZM258.101 54.4082L254.533 45.8915L250.969 54.4082H258.101Z" fill="#B7893A"/>
<path d="M281.842 40.838H292.059C294.5 40.838 296.659 41.2995 298.534 42.2202C300.407 43.1432 301.864 44.4412 302.902 46.114C303.943 47.7879 304.461 49.7376 304.461 51.9608C304.461 54.1874 303.943 56.136 302.902 57.8088C301.864 59.4839 300.407 60.7818 298.534 61.7026C296.659 62.6244 294.5 63.0848 292.059 63.0848H281.842V40.838ZM291.802 58.8572C294.052 58.8572 295.845 58.2384 297.183 56.9998C298.522 55.76 299.192 54.0815 299.192 51.9608C299.192 49.8425 298.522 48.164 297.183 46.9253C295.845 45.6855 294.052 45.0656 291.802 45.0656H287.049V58.8572H291.802Z" fill="#B7893A"/>
<path d="M327.401 58.954V63.0848H309.988V40.838H326.983V44.971H315.16V49.8014H325.602V53.8046H315.16V58.954H327.401Z" fill="#B7893A"/>
<path d="M333.151 40.838H338.357V58.8891H349.633V63.0848H333.151V40.838Z" fill="#B7893A"/>
<path d="M385.328 63.0848L385.295 49.7376L378.676 60.7328H376.329L369.746 50.0225V63.0848H364.861V40.838H369.166L377.583 54.6626L385.874 40.838H390.146L390.211 63.0848H385.328Z" fill="#B7893A"/>
<path d="M411.962 58.3179H401.519L399.527 63.0845H394.195L404.218 40.8377H409.36L419.414 63.0845H413.953L411.962 58.3179ZM410.323 54.4082L406.755 45.8915L403.191 54.4082H410.323Z" fill="#B7893A"/>
<path d="M437.695 63.0848L433.358 56.8881H428.572V63.0848H423.367V40.838H433.101C435.094 40.838 436.823 41.1673 438.29 41.8237C439.757 42.4812 440.887 43.4122 441.679 44.6201C442.471 45.8291 442.869 47.2592 442.869 48.9115C442.869 50.5638 442.467 51.9882 441.663 53.1858C440.861 54.3834 439.72 55.2985 438.242 55.9343L443.286 63.0848H437.695ZM436.378 46.0342C435.564 45.3676 434.375 45.0337 432.812 45.0337H428.572V52.7881H432.812C434.375 52.7881 435.564 52.4497 436.378 51.7705C437.192 51.0937 437.6 50.1387 437.6 48.9115C437.6 47.6603 437.192 46.702 436.378 46.0342Z" fill="#B7893A"/>
<path d="M448.588 40.8374V63.0854H466V58.9535H453.758V53.8051H464.202V49.8009H453.758V44.9705H465.583V40.8374H448.588Z" fill="#B7893A"/>
<path d="M180.997 89.337C181.43 89.8816 181.647 90.5676 181.647 91.4006C181.647 92.5117 181.222 93.3674 180.377 93.9657C179.531 94.5651 178.297 94.8659 176.678 94.8659H170.487V82.0304H176.307C177.791 82.0304 178.937 82.3255 179.746 82.9112C180.556 83.4969 180.96 84.3105 180.96 85.3486C180.96 86.021 180.802 86.6033 180.488 87.091C180.173 87.5798 179.749 87.9536 179.218 88.21C179.972 88.4174 180.565 88.7934 180.997 89.337ZM172.341 83.5174V87.622H176.141C177.092 87.622 177.824 87.4488 178.338 87.1001C178.85 86.7514 179.107 86.2409 179.107 85.5686C179.107 84.8974 178.85 84.3869 178.338 84.0382C177.824 83.6895 177.092 83.5174 176.141 83.5174H172.341ZM178.976 92.8672C179.508 92.5242 179.774 91.9852 179.774 91.2536C179.774 89.8235 178.717 89.1079 176.604 89.1079H172.341V93.3788H176.604C177.655 93.3788 178.447 93.2079 178.976 92.8672Z" fill="#B7893A"/>
<path d="M187.763 94.16C186.712 93.5913 185.888 92.8051 185.289 91.8034C184.688 90.8007 184.388 89.6828 184.388 88.4475C184.388 87.2135 184.688 86.0956 185.289 85.0928C185.888 84.0912 186.712 83.3049 187.763 82.7363C188.813 82.1688 189.994 81.8839 191.302 81.8839C192.601 81.8839 193.774 82.1688 194.825 82.7363C195.875 83.3049 196.697 84.0878 197.29 85.0837C197.884 86.0796 198.18 87.2009 198.18 88.4475C198.18 89.6953 197.884 90.8155 197.29 91.8114C196.697 92.8085 195.875 93.5913 194.825 94.16C193.774 94.7274 192.601 95.0112 191.302 95.0112C189.994 95.0112 188.813 94.7274 187.763 94.16ZM193.87 92.7378C194.629 92.3105 195.228 91.7191 195.667 90.9693C196.106 90.2161 196.325 89.3763 196.325 88.4475C196.325 87.52 196.106 86.6779 195.667 85.9258C195.228 85.176 194.629 84.5857 193.87 84.1573C193.11 83.7288 192.255 83.5169 191.302 83.5169C190.351 83.5169 189.489 83.7288 188.717 84.1573C187.944 84.5857 187.338 85.176 186.902 85.9258C186.463 86.6779 186.243 87.52 186.243 88.4475C186.243 89.3763 186.463 90.2161 186.902 90.9693C187.338 91.7191 187.944 92.3105 188.717 92.7378C189.489 93.1663 190.351 93.3782 191.302 93.3782C192.255 93.3782 193.11 93.1663 193.87 92.7378Z" fill="#B7893A"/>
<path d="M203.277 93.5445C202.313 92.5679 201.831 91.1606 201.831 89.3271V82.0308H203.684V89.2531C203.684 92.005 204.902 93.3793 207.336 93.3793C208.523 93.3793 209.432 93.0408 210.062 92.3628C210.691 91.6837 211.006 90.6467 211.006 89.2531V82.0308H212.805V89.3271C212.805 91.1732 212.322 92.5816 211.359 93.5559C210.395 94.5256 209.048 95.0111 207.318 95.0111C205.589 95.0111 204.241 94.5222 203.277 93.5445Z" fill="#B7893A"/>
<path d="M219.866 83.6261H215.417V82.0319H226.149V83.6261H221.701V94.8651H219.866V83.6261Z" fill="#B7893A"/>
<path d="M229.098 82.0313H230.951V94.8657H229.098V82.0313Z" fill="#B7893A"/>
<path d="M249.134 96.0395C248.713 96.5272 248.225 96.901 247.67 97.1562C247.112 97.4126 246.514 97.5425 245.871 97.5425C245.056 97.5425 244.294 97.3488 243.582 96.9648C242.87 96.5796 242.058 95.921 241.144 94.9934C239.922 94.9308 238.82 94.6071 237.835 94.0214C236.854 93.4357 236.087 92.6551 235.538 91.6843C234.987 90.7111 234.712 89.6343 234.712 88.448C234.712 87.2139 235.011 86.0949 235.612 85.0933C236.21 84.0917 237.037 83.3043 238.086 82.7356C239.136 82.1682 240.318 81.8821 241.626 81.8821C242.923 81.8821 244.098 82.1682 245.149 82.7356C246.199 83.3043 247.022 84.0883 247.613 85.0842C248.206 86.0801 248.503 87.2003 248.503 88.448C248.503 89.4998 248.291 90.4639 247.863 91.3447C247.437 92.2244 246.839 92.9651 246.067 93.5622C245.293 94.1627 244.406 94.5786 243.405 94.81C243.838 95.2612 244.256 95.5894 244.657 95.7911C245.059 95.9939 245.469 96.0942 245.89 96.0942C246.806 96.0942 247.596 95.7284 248.262 94.9934L249.134 96.0395ZM237.223 90.9698C237.663 91.7207 238.268 92.311 239.04 92.7383C239.813 93.1668 240.675 93.3799 241.626 93.3799C242.565 93.3799 243.418 93.1668 244.185 92.7383C244.95 92.311 245.553 91.7207 245.991 90.9698C246.43 90.2166 246.65 89.3756 246.65 88.448C246.65 87.5193 246.43 86.6772 245.991 85.9274C245.553 85.1765 244.95 84.5851 244.185 84.1566C243.418 83.7282 242.565 83.5174 241.626 83.5174C240.675 83.5174 239.813 83.7282 239.04 84.1566C238.268 84.5851 237.663 85.1765 237.223 85.9274C236.784 86.6772 236.567 87.5193 236.567 88.448C236.567 89.3756 236.784 90.2166 237.223 90.9698Z" fill="#B7893A"/>
<path d="M253.601 93.5445C252.636 92.5679 252.154 91.1606 252.154 89.3271V82.0308H254.009V89.2531C254.009 92.005 255.224 93.3793 257.66 93.3793C258.846 93.3793 259.755 93.0408 260.384 92.3628C261.014 91.6837 261.331 90.6467 261.331 89.2531V82.0308H263.128V89.3271C263.128 91.1732 262.646 92.5816 261.683 93.5559C260.719 94.5256 259.373 95.0111 257.641 95.0111C255.911 95.0111 254.564 94.5222 253.601 93.5445Z" fill="#B7893A"/>
<path d="M277.271 93.2697V94.865H267.854V82.0306H277.01V83.626H269.707V87.5687H276.214V89.1264H269.707V93.2697H277.271Z" fill="#B7893A"/>
<path d="M298.271 82.0303V94.8658H296.418V89.1431H288.967V94.8658H287.112V82.0303H288.967V87.5512H296.418V82.0303H298.271Z" fill="#B7893A"/>
<path d="M305.408 94.16C304.357 93.5913 303.532 92.8051 302.933 91.8034C302.334 90.8007 302.033 89.6828 302.033 88.4475C302.033 87.2135 302.334 86.0956 302.933 85.0928C303.532 84.0912 304.357 83.3049 305.408 82.7363C306.458 82.1688 307.638 81.8839 308.948 81.8839C310.244 81.8839 311.419 82.1688 312.469 82.7363C313.52 83.3049 314.342 84.0878 314.935 85.0837C315.528 86.0796 315.825 87.2009 315.825 88.4475C315.825 89.6953 315.528 90.8155 314.935 91.8114C314.342 92.8085 313.52 93.5913 312.469 94.16C311.419 94.7274 310.244 95.0112 308.948 95.0112C307.638 95.0112 306.458 94.7274 305.408 94.16ZM311.514 92.7378C312.276 92.3105 312.874 91.7191 313.311 90.9693C313.751 90.2161 313.971 89.3763 313.971 88.4475C313.971 87.52 313.751 86.6779 313.311 85.9258C312.874 85.176 312.276 84.5857 311.514 84.1573C310.755 83.7288 309.898 83.5169 308.948 83.5169C307.996 83.5169 307.134 83.7288 306.363 84.1573C305.591 84.5857 304.985 85.176 304.546 85.9258C304.107 86.6779 303.888 87.52 303.888 88.4475C303.888 89.3763 304.107 90.2161 304.546 90.9693C304.985 91.7191 305.591 92.3105 306.363 92.7378C307.134 93.1663 307.996 93.3782 308.948 93.3782C309.898 93.3782 310.755 93.1663 311.514 92.7378Z" fill="#B7893A"/>
<path d="M321.978 83.6261H317.529V82.0319H328.262V83.6261H323.813V94.8651H321.978V83.6261Z" fill="#B7893A"/>
<path d="M340.624 93.2697V94.865H331.207V82.0306H340.364V83.626H333.062V87.5687H339.567V89.1264H333.062V93.2697H340.624Z" fill="#B7893A"/>
<path d="M344.554 82.0303H346.407V93.2693H353.433V94.8658H344.554V82.0303Z" fill="#B7893A"/>
<path d="M357.316 94.5628C356.408 94.2619 355.693 93.8745 355.175 93.3982L355.861 91.9681C356.354 92.4079 356.989 92.7669 357.761 93.0392C358.533 93.315 359.328 93.4529 360.142 93.4529C361.217 93.4529 362.021 93.2717 362.552 92.9128C363.083 92.5515 363.349 92.0718 363.349 91.4724C363.349 91.0326 363.204 90.6747 362.913 90.4013C362.623 90.1255 362.265 89.9147 361.839 89.7677C361.413 89.6207 360.809 89.4566 360.031 89.2731C359.055 89.0407 358.267 88.8082 357.668 88.5758C357.069 88.3444 356.556 87.9866 356.13 87.5046C355.703 87.0226 355.489 86.3708 355.489 85.5515C355.489 84.8666 355.672 84.249 356.036 83.6998C356.4 83.1482 356.956 82.7107 357.696 82.3791C358.437 82.0497 359.358 81.8834 360.459 81.8834C361.224 81.8834 361.978 81.9814 362.719 82.1762C363.46 82.3734 364.097 82.6548 364.628 83.0206L364.016 84.4872C363.473 84.1442 362.892 83.8855 362.274 83.7089C361.656 83.5311 361.051 83.4422 360.459 83.4422C359.407 83.4422 358.62 83.6314 358.094 84.0108C357.57 84.3892 357.306 84.8792 357.306 85.4774C357.306 85.9173 357.456 86.2751 357.75 86.5508C358.048 86.8255 358.416 87.0397 358.854 87.1924C359.293 87.3451 359.89 87.508 360.643 87.6778C361.619 87.9103 362.403 88.1427 362.997 88.3741C363.591 88.6065 364.099 88.962 364.525 89.4372C364.952 89.9147 365.166 90.5551 365.166 91.3619C365.166 92.0353 364.98 92.6484 364.611 93.2067C364.239 93.7617 363.676 94.2027 362.923 94.5263C362.17 94.8488 361.242 95.0117 360.142 95.0117C359.166 95.0117 358.225 94.8636 357.316 94.5628Z" fill="#B7893A"/>
</svg>
