<svg width="52" height="52" viewBox="0 0 52 52" fill="none" xmlns="http://www.w3.org/2000/svg">
<path fill-rule="evenodd" clip-rule="evenodd" d="M26 52C40.3594 52 52 40.3594 52 26C52 11.6406 40.3594 0 26 0C11.6406 0 0 11.6406 0 26C0 40.3594 11.6406 52 26 52ZM37.4281 16.6111C37.6286 14.3334 35.2234 15.2713 35.2234 15.2713C33.4475 16.0064 31.6159 16.7535 29.7647 17.5087C24.0244 19.8501 18.094 22.2692 13.0422 24.6499C10.3029 25.6548 11.9064 26.6596 11.9064 26.6596L16.2491 27.9994C18.2534 28.6023 19.3224 27.9324 19.3224 27.9324L28.6759 21.5684C32.0164 19.2907 31.2148 21.1664 30.413 21.9703L23.3978 28.6693C22.3289 29.6071 22.8634 30.4111 23.331 30.813C24.6565 31.9824 27.917 34.1221 29.3405 35.0563C29.7109 35.2993 29.9569 35.4608 30.0121 35.5023C30.3462 35.7703 32.15 36.9761 33.3527 36.7081C34.5553 36.4401 34.6889 34.8994 34.6889 34.8994L36.2924 24.3819C36.5329 22.556 36.8087 20.801 37.029 19.3993C37.2371 18.0754 37.3957 17.0667 37.4281 16.6111Z" fill="#B7893A"/>
</svg>
