<svg width="492" height="106" viewBox="0 0 492 106" fill="none" xmlns="http://www.w3.org/2000/svg">
<path d="M5 15.3125H13.75C17.3333 15.3125 20.0833 16.2292 22 18.0625C23.9375 19.8958 24.9062 22.6042 24.9062 26.1875C24.9062 32.375 22.6458 35.9167 18.125 36.8125V37.0625C20.7292 37.6042 22.6667 38.7708 23.9375 40.5625C25.2083 42.3333 25.8438 44.8125 25.8438 48C25.8438 52.0833 24.9375 55.2708 23.125 57.5625C21.3125 59.8542 18.7708 61 15.5 61H5V15.3125ZM8.0625 35.6562H13.8125C16.6667 35.6562 18.6979 34.875 19.9062 33.3125C21.1354 31.7292 21.75 29.3333 21.75 26.125C21.75 23.5417 21.0729 21.5625 19.7188 20.1875C18.3854 18.8125 16.3958 18.125 13.75 18.125H8.0625V35.6562ZM8.0625 38.4688V58.1875H15.0938C20.1354 58.1875 22.6562 54.7708 22.6562 47.9375C22.6562 44.8958 21.9167 42.5625 20.4375 40.9375C18.9583 39.2917 16.8854 38.4688 14.2188 38.4688H8.0625ZM58.6562 61H55.6875V27.0938H58.6562V61ZM35.875 41.9375H40.2812C43.5729 41.9375 46.0938 42.7708 47.8438 44.4375C49.5938 46.0833 50.4688 48.4271 50.4688 51.4688C50.4688 54.4896 49.5729 56.8333 47.7812 58.5C45.9896 60.1667 43.4688 61 40.2188 61H32.9062V27.0938H35.875V41.9375ZM35.875 44.625V58.3125H40.2188C44.9896 58.3125 47.375 56.0312 47.375 51.4688C47.375 46.9062 45.0104 44.625 40.2812 44.625H35.875ZM69.5938 39.4375C69.6771 46.1042 70.2604 51.0208 71.3438 54.1875C72.4479 57.3542 74.1458 58.9375 76.4375 58.9375C81.6042 58.9375 84.1875 54.4792 84.1875 45.5625C84.1875 36.7917 81.7083 32.4062 76.75 32.4062C75.2292 32.4062 73.8021 33.0729 72.4688 34.4062C71.1354 35.7396 70.1771 37.4167 69.5938 39.4375ZM66.5 38.7812C66.5 32.4062 67.0625 27.4062 68.1875 23.7812C69.3333 20.1354 71.25 17.4271 73.9375 15.6562C76.6458 13.8646 80.8229 12.6979 86.4688 12.1562L86.9375 14.8438C82.3125 15.1979 78.8438 16.0104 76.5312 17.2812C74.2188 18.5521 72.5208 20.5104 71.4375 23.1562C70.375 25.8021 69.7604 29.6458 69.5938 34.6875H69.8438C70.6146 33.0625 71.6562 31.8021 72.9688 30.9062C74.3021 30.0104 75.7396 29.5625 77.2812 29.5625C80.4062 29.5625 82.8438 30.9479 84.5938 33.7188C86.3646 36.4688 87.25 40.4167 87.25 45.5625C87.25 50.7083 86.3229 54.6771 84.4688 57.4688C82.6146 60.2396 79.9167 61.625 76.375 61.625C72.9583 61.625 70.4583 59.7604 68.875 56.0312C67.2917 52.2812 66.5 46.5312 66.5 38.7812ZM104.344 61.625C100.76 61.625 98 60.1042 96.0625 57.0625C94.1458 54 93.1875 49.7396 93.1875 44.2812C93.1875 38.4896 94.0417 34.0729 95.75 31.0312C97.4792 27.9688 99.9583 26.4375 103.188 26.4375C106 26.4375 108.219 27.7812 109.844 30.4688C111.469 33.1354 112.281 36.7396 112.281 41.2812V44.0312H96.2188C96.2604 48.9688 96.9583 52.6667 98.3125 55.125C99.6667 57.5833 101.719 58.8125 104.469 58.8125C106.594 58.8125 108.833 58.1146 111.188 56.7188V59.5938C109.021 60.9479 106.74 61.625 104.344 61.625ZM103 29.125C98.9167 29.125 96.6771 33.1979 96.2812 41.3438H109.312C109.312 37.6146 108.74 34.6458 107.594 32.4375C106.469 30.2292 104.938 29.125 103 29.125ZM130.75 61.625C129.042 61.625 127.479 61.1562 126.062 60.2188C124.667 59.2604 123.604 57.9583 122.875 56.3125H122.594L122.812 60.0312V76.375H119.844V27.0938H122.281L122.594 31.75H122.875C123.708 30.0417 124.771 28.7292 126.062 27.8125C127.375 26.8958 128.802 26.4375 130.344 26.4375C136.969 26.4375 140.281 32.2812 140.281 43.9688C140.281 49.6146 139.469 53.9688 137.844 57.0312C136.219 60.0938 133.854 61.625 130.75 61.625ZM130.156 29.25C127.677 29.25 125.833 30.3438 124.625 32.5312C123.417 34.7188 122.812 38.1458 122.812 42.8125V43.7812C122.812 48.9896 123.427 52.8229 124.656 55.2812C125.885 57.7188 127.76 58.9375 130.281 58.9375C132.615 58.9375 134.344 57.7292 135.469 55.3125C136.615 52.875 137.188 49.0938 137.188 43.9688C137.188 39.0729 136.656 35.3958 135.594 32.9375C134.531 30.4792 132.719 29.25 130.156 29.25ZM150.75 27.0938V50L150.531 56.4062L162.562 27.0938H166.281V61H163.344V39.0625L163.469 31.6875L151.438 61H147.781V27.0938H150.75ZM186.375 27.0938V29.7812H180.344V61H177.406V29.7812H171.375V27.0938H186.375ZM201.031 61.625C197.448 61.625 194.688 60.1042 192.75 57.0625C190.833 54 189.875 49.7396 189.875 44.2812C189.875 38.4896 190.729 34.0729 192.438 31.0312C194.167 27.9688 196.646 26.4375 199.875 26.4375C202.688 26.4375 204.906 27.7812 206.531 30.4688C208.156 33.1354 208.969 36.7396 208.969 41.2812V44.0312H192.906C192.948 48.9688 193.646 52.6667 195 55.125C196.354 57.5833 198.406 58.8125 201.156 58.8125C203.281 58.8125 205.521 58.1146 207.875 56.7188V59.5938C205.708 60.9479 203.427 61.625 201.031 61.625ZM199.688 29.125C195.604 29.125 193.365 33.1979 192.969 41.3438H206C206 37.6146 205.427 34.6458 204.281 32.4375C203.156 30.2292 201.625 29.125 199.688 29.125ZM231.094 61.625C230.135 61.625 229.156 61.5104 228.156 61.2812C227.156 61.0729 226.323 60.7917 225.656 60.4375V57.5938C227.427 58.4062 229.177 58.8125 230.906 58.8125C233.635 58.8125 235.688 57.6875 237.062 55.4375C238.438 53.1667 239.177 49.5625 239.281 44.625H230.094V41.9375H239.219C238.865 33.4792 236.24 29.25 231.344 29.25C230.677 29.25 229.938 29.375 229.125 29.625C228.312 29.8542 227.708 30.0938 227.312 30.3438L226.188 27.6562C227.875 26.8438 229.708 26.4375 231.688 26.4375C235.167 26.4375 237.812 27.9062 239.625 30.8438C241.458 33.7812 242.375 38.1146 242.375 43.8438C242.375 49.6771 241.427 54.1042 239.531 57.125C237.656 60.125 234.844 61.625 231.094 61.625ZM260.875 27.0938V29.7812H254.844V61H251.906V29.7812H245.875V27.0938H260.875ZM279.031 61L278.656 56.25H278.531C276.906 59.8333 274.448 61.625 271.156 61.625C268.948 61.625 267.167 60.75 265.812 59C264.479 57.2292 263.812 54.8646 263.812 51.9062C263.812 48.6771 264.781 46.125 266.719 44.25C268.656 42.3542 271.375 41.3229 274.875 41.1562L278.531 40.9688V38.1562C278.531 34.9896 278.135 32.6875 277.344 31.25C276.552 29.7917 275.24 29.0625 273.406 29.0625C271.469 29.0625 269.49 29.6979 267.469 30.9688L266.188 28.625C268.542 27.1667 271.01 26.4375 273.594 26.4375C276.385 26.4375 278.396 27.3229 279.625 29.0938C280.854 30.8438 281.469 33.7812 281.469 37.9062V61H279.031ZM271.812 59.0938C273.938 59.0938 275.583 58.0521 276.75 55.9688C277.938 53.8646 278.531 50.8958 278.531 47.0625V43.5312L275 43.7188C272.271 43.8646 270.24 44.625 268.906 46C267.594 47.3542 266.938 49.3438 266.938 51.9688C266.938 54.4271 267.375 56.2292 268.25 57.375C269.125 58.5208 270.312 59.0938 271.812 59.0938ZM302.312 27.0938V43.0312L311.344 27.0938H314.688L305.281 43.0312L315.5 61H312.062L302.312 43.2812V61H299.375V43.2812L289.656 61H286.188L296.438 43.0312L287.031 27.0938H290.344L299.375 43.0312V27.0938H302.312Z" fill="white"/>
<path d="M333.352 48.0196C332.8 48.0016 332.337 48.4345 332.319 48.9865C332.302 49.5385 332.734 50.0005 333.286 50.0185L333.352 48.0196ZM485.689 105.254C486.241 105.257 486.691 104.812 486.694 104.259L486.742 95.2594C486.745 94.7071 486.299 94.257 485.747 94.2541C485.195 94.2511 484.745 94.6965 484.742 95.2488L484.699 103.249L476.699 103.206C476.147 103.203 475.697 103.649 475.694 104.201C475.691 104.753 476.136 105.203 476.689 105.206L485.689 105.254ZM333.286 50.0185C370.873 51.2432 398.294 54.3891 421.563 62.5096C444.802 70.6196 463.966 83.7156 484.983 104.957L486.405 103.551C465.232 82.152 445.818 68.856 422.222 60.6213C398.656 52.3971 370.985 49.2457 333.352 48.0196L333.286 50.0185Z" fill="white"/>
</svg>
