<svg width="188" height="193" viewBox="0 0 188 193" fill="none" xmlns="http://www.w3.org/2000/svg">
<path d="M3.125 7.44531H8.59375C10.8333 7.44531 12.5521 8.01823 13.75 9.16406C14.9609 10.3099 15.5664 12.0026 15.5664 14.2422C15.5664 18.1094 14.1536 20.3229 11.3281 20.8828V21.0391C12.9557 21.3776 14.1667 22.1068 14.9609 23.2266C15.7552 24.3333 16.1523 25.8828 16.1523 27.875C16.1523 30.4271 15.5859 32.4193 14.4531 33.8516C13.3203 35.2839 11.7318 36 9.6875 36H3.125V7.44531ZM5.03906 20.1602H8.63281C10.4167 20.1602 11.6862 19.6719 12.4414 18.6953C13.2096 17.7057 13.5938 16.2083 13.5938 14.2031C13.5938 12.5885 13.1706 11.3516 12.3242 10.4922C11.4909 9.63281 10.2474 9.20312 8.59375 9.20312H5.03906V20.1602ZM5.03906 21.918V34.2422H9.43359C12.5846 34.2422 14.1602 32.1068 14.1602 27.8359C14.1602 25.9349 13.6979 24.4766 12.7734 23.4609C11.849 22.4323 10.5534 21.918 8.88672 21.918H5.03906ZM36.6602 36H34.8047V14.8086H36.6602V36ZM22.4219 24.0859H25.1758C27.2331 24.0859 28.8086 24.6068 29.9023 25.6484C30.9961 26.6771 31.543 28.1419 31.543 30.043C31.543 31.931 30.9831 33.3958 29.8633 34.4375C28.7435 35.4792 27.168 36 25.1367 36H20.5664V14.8086H22.4219V24.0859ZM22.4219 25.7656V34.3203H25.1367C28.1185 34.3203 29.6094 32.8945 29.6094 30.043C29.6094 27.1914 28.1315 25.7656 25.1758 25.7656H22.4219ZM43.4961 22.5234C43.5482 26.6901 43.9128 29.763 44.5898 31.7422C45.2799 33.7214 46.3411 34.7109 47.7734 34.7109C51.0026 34.7109 52.6172 31.9245 52.6172 26.3516C52.6172 20.8698 51.0677 18.1289 47.9688 18.1289C47.0182 18.1289 46.1263 18.5456 45.293 19.3789C44.4596 20.2122 43.8607 21.2604 43.4961 22.5234ZM41.5625 22.1133C41.5625 18.1289 41.9141 15.0039 42.6172 12.7383C43.3333 10.4596 44.5312 8.76693 46.2109 7.66016C47.9036 6.54036 50.5143 5.8112 54.043 5.47266L54.3359 7.15234C51.4453 7.3737 49.2773 7.88151 47.832 8.67578C46.3867 9.47005 45.3255 10.694 44.6484 12.3477C43.9844 14.0013 43.6003 16.4036 43.4961 19.5547H43.6523C44.1341 18.5391 44.7852 17.7513 45.6055 17.1914C46.4388 16.6315 47.3372 16.3516 48.3008 16.3516C50.2539 16.3516 51.7773 17.2174 52.8711 18.9492C53.9779 20.668 54.5312 23.1354 54.5312 26.3516C54.5312 29.5677 53.9518 32.0482 52.793 33.793C51.6341 35.5247 49.9479 36.3906 47.7344 36.3906C45.599 36.3906 44.0365 35.2253 43.0469 32.8945C42.0573 30.5508 41.5625 26.957 41.5625 22.1133ZM65.2148 36.3906C62.9753 36.3906 61.25 35.4401 60.0391 33.5391C58.8411 31.625 58.2422 28.9622 58.2422 25.5508C58.2422 21.931 58.776 19.1706 59.8438 17.2695C60.9245 15.3555 62.474 14.3984 64.4922 14.3984C66.25 14.3984 67.6367 15.2383 68.6523 16.918C69.668 18.5846 70.1758 20.8372 70.1758 23.6758V25.3945H60.1367C60.1628 28.4805 60.599 30.7917 61.4453 32.3281C62.2917 33.8646 63.5742 34.6328 65.293 34.6328C66.6211 34.6328 68.0208 34.1966 69.4922 33.3242V35.1211C68.138 35.9674 66.7122 36.3906 65.2148 36.3906ZM64.375 16.0781C61.8229 16.0781 60.4232 18.6237 60.1758 23.7148H68.3203C68.3203 21.3841 67.9622 19.5286 67.2461 18.1484C66.543 16.7682 65.5859 16.0781 64.375 16.0781ZM81.7188 36.3906C80.651 36.3906 79.6745 36.0977 78.7891 35.5117C77.9167 34.9128 77.2526 34.099 76.7969 33.0703H76.6211L76.7578 35.3945V45.6094H74.9023V14.8086H76.4258L76.6211 17.7188H76.7969C77.3177 16.651 77.9818 15.8307 78.7891 15.2578C79.6094 14.6849 80.5013 14.3984 81.4648 14.3984C85.6055 14.3984 87.6758 18.0508 87.6758 25.3555C87.6758 28.8841 87.168 31.6055 86.1523 33.5195C85.1367 35.4336 83.6589 36.3906 81.7188 36.3906ZM81.3477 16.1562C79.7982 16.1562 78.6458 16.8398 77.8906 18.207C77.1354 19.5742 76.7578 21.7161 76.7578 24.6328V25.2383C76.7578 28.4935 77.1419 30.8893 77.9102 32.4258C78.6784 33.9492 79.8503 34.7109 81.4258 34.7109C82.8841 34.7109 83.9648 33.9557 84.668 32.4453C85.3841 30.9219 85.7422 28.5586 85.7422 25.3555C85.7422 22.2956 85.4102 19.9974 84.7461 18.4609C84.082 16.9245 82.9492 16.1562 81.3477 16.1562ZM94.2188 14.8086V29.125L94.082 33.1289L101.602 14.8086H103.926V36H102.09V22.2891L102.168 17.6797L94.6484 36H92.3633V14.8086H94.2188ZM116.484 14.8086V16.4883H112.715V36H110.879V16.4883H107.109V14.8086H116.484ZM125.645 36.3906C123.405 36.3906 121.68 35.4401 120.469 33.5391C119.271 31.625 118.672 28.9622 118.672 25.5508C118.672 21.931 119.206 19.1706 120.273 17.2695C121.354 15.3555 122.904 14.3984 124.922 14.3984C126.68 14.3984 128.066 15.2383 129.082 16.918C130.098 18.5846 130.605 20.8372 130.605 23.6758V25.3945H120.566C120.592 28.4805 121.029 30.7917 121.875 32.3281C122.721 33.8646 124.004 34.6328 125.723 34.6328C127.051 34.6328 128.451 34.1966 129.922 33.3242V35.1211C128.568 35.9674 127.142 36.3906 125.645 36.3906ZM124.805 16.0781C122.253 16.0781 120.853 18.6237 120.605 23.7148H128.75C128.75 21.3841 128.392 19.5286 127.676 18.1484C126.973 16.7682 126.016 16.0781 124.805 16.0781ZM11.0352 76L10.8008 73.0312H10.7227C9.70703 75.2708 8.17057 76.3906 6.11328 76.3906C4.73307 76.3906 3.61979 75.8438 2.77344 74.75C1.9401 73.6432 1.52344 72.1654 1.52344 70.3164C1.52344 68.2982 2.12891 66.7031 3.33984 65.5312C4.55078 64.3464 6.25 63.7018 8.4375 63.5977L10.7227 63.4805V61.7227C10.7227 59.7435 10.4753 58.3047 9.98047 57.4062C9.48568 56.4948 8.66536 56.0391 7.51953 56.0391C6.30859 56.0391 5.07161 56.4362 3.80859 57.2305L3.00781 55.7656C4.47917 54.8542 6.02214 54.3984 7.63672 54.3984C9.38151 54.3984 10.638 54.9518 11.4062 56.0586C12.1745 57.1523 12.5586 58.9883 12.5586 61.5664V76H11.0352ZM6.52344 74.8086C7.85156 74.8086 8.88021 74.1576 9.60938 72.8555C10.3516 71.5404 10.7227 69.6849 10.7227 67.2891V65.082L8.51562 65.1992C6.8099 65.2904 5.54036 65.7656 4.70703 66.625C3.88672 67.4714 3.47656 68.7148 3.47656 70.3555C3.47656 71.8919 3.75 73.0182 4.29688 73.7344C4.84375 74.4505 5.58594 74.8086 6.52344 74.8086ZM29.707 54.8086V76H27.8711V56.4883H20V76H18.1445V54.8086H29.707ZM43.6133 76L43.3789 73.0312H43.3008C42.2852 75.2708 40.7487 76.3906 38.6914 76.3906C37.3112 76.3906 36.1979 75.8438 35.3516 74.75C34.5182 73.6432 34.1016 72.1654 34.1016 70.3164C34.1016 68.2982 34.707 66.7031 35.918 65.5312C37.1289 64.3464 38.8281 63.7018 41.0156 63.5977L43.3008 63.4805V61.7227C43.3008 59.7435 43.0534 58.3047 42.5586 57.4062C42.0638 56.4948 41.2435 56.0391 40.0977 56.0391C38.8867 56.0391 37.6497 56.4362 36.3867 57.2305L35.5859 55.7656C37.0573 54.8542 38.6003 54.3984 40.2148 54.3984C41.9596 54.3984 43.2161 54.9518 43.9844 56.0586C44.7526 57.1523 45.1367 58.9883 45.1367 61.5664V76H43.6133ZM39.1016 74.8086C40.4297 74.8086 41.4583 74.1576 42.1875 72.8555C42.9297 71.5404 43.3008 69.6849 43.3008 67.2891V65.082L41.0938 65.1992C39.388 65.2904 38.1185 65.7656 37.2852 66.625C36.4648 67.4714 36.0547 68.7148 36.0547 70.3555C36.0547 71.8919 36.3281 73.0182 36.875 73.7344C37.4219 74.4505 38.1641 74.8086 39.1016 74.8086ZM57.5391 76.3906C56.4714 76.3906 55.4948 76.0977 54.6094 75.5117C53.737 74.9128 53.0729 74.099 52.6172 73.0703H52.4414L52.5781 75.3945V85.6094H50.7227V54.8086H52.2461L52.4414 57.7188H52.6172C53.138 56.651 53.8021 55.8307 54.6094 55.2578C55.4297 54.6849 56.3216 54.3984 57.2852 54.3984C61.4258 54.3984 63.4961 58.0508 63.4961 65.3555C63.4961 68.8841 62.9883 71.6055 61.9727 73.5195C60.957 75.4336 59.4792 76.3906 57.5391 76.3906ZM57.168 56.1562C55.6185 56.1562 54.4661 56.8398 53.7109 58.207C52.9557 59.5742 52.5781 61.7161 52.5781 64.6328V65.2383C52.5781 68.4935 52.9622 70.8893 53.7305 72.4258C54.4987 73.9492 55.6706 74.7109 57.2461 74.7109C58.7044 74.7109 59.7852 73.9557 60.4883 72.4453C61.2044 70.9219 61.5625 68.5586 61.5625 65.3555C61.5625 62.2956 61.2305 59.9974 60.5664 58.4609C59.9023 56.9245 58.7695 56.1562 57.168 56.1562ZM75.0391 54.8086V56.4883H71.2695V76H69.4336V56.4883H65.6641V54.8086H75.0391ZM86.3867 76L86.1523 73.0312H86.0742C85.0586 75.2708 83.5221 76.3906 81.4648 76.3906C80.0846 76.3906 78.9714 75.8438 78.125 74.75C77.2917 73.6432 76.875 72.1654 76.875 70.3164C76.875 68.2982 77.4805 66.7031 78.6914 65.5312C79.9023 64.3464 81.6016 63.7018 83.7891 63.5977L86.0742 63.4805V61.7227C86.0742 59.7435 85.8268 58.3047 85.332 57.4062C84.8372 56.4948 84.0169 56.0391 82.8711 56.0391C81.6602 56.0391 80.4232 56.4362 79.1602 57.2305L78.3594 55.7656C79.8307 54.8542 81.3737 54.3984 82.9883 54.3984C84.7331 54.3984 85.9896 54.9518 86.7578 56.0586C87.526 57.1523 87.9102 58.9883 87.9102 61.5664V76H86.3867ZM81.875 74.8086C83.2031 74.8086 84.2318 74.1576 84.9609 72.8555C85.7031 71.5404 86.0742 69.6849 86.0742 67.2891V65.082L83.8672 65.1992C82.1615 65.2904 80.8919 65.7656 80.0586 66.625C79.2383 67.4714 78.8281 68.7148 78.8281 70.3555C78.8281 71.8919 79.1016 73.0182 79.6484 73.7344C80.1953 74.4505 80.9375 74.8086 81.875 74.8086ZM99.8242 76L95.2148 57.6797H95.0586C95.2018 60.6875 95.2734 62.5039 95.2734 63.1289V76H93.4961V54.8086H96.1914L99.707 68.6367C100.215 70.7331 100.586 72.4974 100.82 73.9297H100.977C100.99 73.7344 101.107 73.1419 101.328 72.1523C101.562 71.1497 103.034 65.3685 105.742 54.8086H108.418V76H106.582V63.2461C106.582 62.2695 106.647 60.4141 106.777 57.6797H106.621L101.992 76H99.8242ZM120.137 76.3906C117.897 76.3906 116.172 75.4401 114.961 73.5391C113.763 71.625 113.164 68.9622 113.164 65.5508C113.164 61.931 113.698 59.1706 114.766 57.2695C115.846 55.3555 117.396 54.3984 119.414 54.3984C121.172 54.3984 122.559 55.2383 123.574 56.918C124.59 58.5846 125.098 60.8372 125.098 63.6758V65.3945H115.059C115.085 68.4805 115.521 70.7917 116.367 72.3281C117.214 73.8646 118.496 74.6328 120.215 74.6328C121.543 74.6328 122.943 74.1966 124.414 73.3242V75.1211C123.06 75.9674 121.634 76.3906 120.137 76.3906ZM119.297 56.0781C116.745 56.0781 115.345 58.6237 115.098 63.7148H123.242C123.242 61.3841 122.884 59.5286 122.168 58.1484C121.465 56.7682 120.508 56.0781 119.297 56.0781ZM131.68 54.8086V64.0859H139.551V54.8086H141.387V76H139.551V65.7656H131.68V76H129.824V54.8086H131.68ZM153.945 54.8086V56.4883H150.176V76H148.34V56.4883H144.57V54.8086H153.945ZM173.184 76H171.328V54.8086H173.184V76ZM158.945 64.0859H161.699C163.757 64.0859 165.332 64.6068 166.426 65.6484C167.52 66.6771 168.066 68.1419 168.066 70.043C168.066 71.931 167.507 73.3958 166.387 74.4375C165.267 75.4792 163.691 76 161.66 76H157.09V54.8086H158.945V64.0859ZM158.945 65.7656V74.3203H161.66C164.642 74.3203 166.133 72.8945 166.133 70.043C166.133 67.1914 164.655 65.7656 161.699 65.7656H158.945Z" fill="#424242"/>
<path d="M75.5051 102.563C75.1943 102.106 75.3125 101.484 75.769 101.173C76.2256 100.863 76.8476 100.981 77.1584 101.437L75.5051 102.563ZM187.556 176.303C187.916 176.721 187.87 177.353 187.451 177.713L180.637 183.592C180.218 183.953 179.587 183.906 179.226 183.488C178.865 183.07 178.912 182.438 179.33 182.078L185.388 176.852L180.163 170.794C179.802 170.376 179.848 169.745 180.267 169.384C180.685 169.023 181.316 169.07 181.677 169.488L187.556 176.303ZM77.1584 101.437C94.9791 127.616 109.669 145.28 126.249 156.886C142.796 168.47 161.306 174.073 186.872 175.959L186.725 177.953C160.917 176.05 142.028 170.373 125.102 158.525C108.209 146.7 93.3525 128.781 75.5051 102.563L77.1584 101.437Z" fill="#424242"/>
</svg>
